<svg width="25" height="25" viewBox="0 0 25 25" fill="none" xmlns="http://www.w3.org/2000/svg">
<g clip-path="url(#clip0_14_210)">
<path d="M24.3964 12.4391C24.3964 18.8977 19.0278 24.1395 12.413 24.1395C5.7981 24.1395 0.429504 18.8977 0.429504 12.4391C0.429504 5.98053 5.7981 0.73877 12.413 0.73877C19.0278 0.73877 24.3964 5.98053 24.3964 12.4391Z" fill="white"/>
<path d="M12.5 0C5.59561 0 0 5.59633 0 12.5C0 19.4039 5.59557 25 12.5 25C19.4045 25 25 19.4039 25 12.5C25 5.59633 19.4044 0 12.5 0ZM12.5 4.16668C17.103 4.16668 20.8334 7.89807 20.8334 12.5C20.8334 17.102 17.103 20.8334 12.5 20.8334C7.89707 20.8334 4.16668 17.102 4.16668 12.5C4.16668 7.89804 7.89704 4.16668 12.5 4.16668ZM12.5 8.33332C10.1985 8.33332 8.33336 10.199 8.33336 12.5C8.33336 14.8012 10.1986 16.6666 12.5 16.6666C14.8015 16.6666 16.6667 14.8012 16.6667 12.5C16.6666 10.199 14.8015 8.33332 12.5 8.33332ZM22.7941 22.0588C22.3946 22.0588 22.0588 22.373 22.0588 22.7942C22.0588 23.2199 22.3946 23.5295 22.7941 23.5295C23.1888 23.5295 23.5294 23.2199 23.5294 22.7942C23.5294 22.373 23.1888 22.0588 22.7941 22.0588ZM22.7941 22.1814C23.1226 22.1814 23.3824 22.4456 23.3824 22.7942C23.3824 23.1481 23.1226 23.4069 22.7941 23.4069C22.4608 23.4069 22.2059 23.1481 22.2059 22.7942C22.2059 22.4456 22.4608 22.1814 22.7941 22.1814ZM22.5123 22.3713V23.2169H22.6409V22.8493H22.788L23.0086 23.2169H23.1496L22.9106 22.8432C23.0307 22.8265 23.1312 22.762 23.1312 22.6103C23.1312 22.4422 23.0331 22.3713 22.8371 22.3713H22.5123ZM22.6409 22.4816H22.8125C22.9008 22.4816 22.9964 22.4993 22.9964 22.6042C22.9964 22.7343 22.902 22.739 22.7942 22.739H22.641V22.4816H22.6409Z" fill="#CC0000"/>
</g>
<defs>
<clipPath id="clip0_14_210">
<rect width="25" height="25" fill="white"/>
</clipPath>
</defs>
</svg>
