<svg width="28" height="28" viewBox="0 0 28 28" fill="none" xmlns="http://www.w3.org/2000/svg">
<path d="M3.49998 4.66663C3.19056 4.66663 2.89381 4.78954 2.67502 5.00833C2.45623 5.22713 2.33331 5.52387 2.33331 5.83329V22.1666C2.33331 22.476 2.45623 22.7728 2.67502 22.9916C2.89381 23.2104 3.19056 23.3333 3.49998 23.3333C3.8094 23.3333 4.10615 23.2104 4.32494 22.9916C4.54373 22.7728 4.66665 22.476 4.66665 22.1666V5.83329C4.66665 5.52387 4.54373 5.22713 4.32494 5.00833C4.10615 4.78954 3.8094 4.66663 3.49998 4.66663ZM25.5733 13.5566C25.5178 13.4134 25.4345 13.2826 25.3283 13.1716L20.6616 8.50496C20.5529 8.39618 20.4237 8.30989 20.2816 8.25102C20.1395 8.19215 19.9871 8.16185 19.8333 8.16185C19.5226 8.16185 19.2247 8.28527 19.005 8.50496C18.7853 8.72465 18.6619 9.02261 18.6619 9.33329C18.6619 9.64398 18.7853 9.94194 19.005 10.1616L21.6883 12.8333H8.16665C7.85723 12.8333 7.56048 12.9562 7.34169 13.175C7.1229 13.3938 6.99998 13.6905 6.99998 14C6.99998 14.3094 7.1229 14.6061 7.34169 14.8249C7.56048 15.0437 7.85723 15.1666 8.16665 15.1666H21.6883L19.005 17.8383C18.8956 17.9467 18.8088 18.0758 18.7496 18.218C18.6904 18.3601 18.6599 18.5126 18.6599 18.6666C18.6599 18.8206 18.6904 18.9731 18.7496 19.1153C18.8088 19.2575 18.8956 19.3865 19.005 19.495C19.1134 19.6043 19.2425 19.6911 19.3846 19.7503C19.5268 19.8096 19.6793 19.8401 19.8333 19.8401C19.9873 19.8401 20.1398 19.8096 20.282 19.7503C20.4242 19.6911 20.5532 19.6043 20.6616 19.495L25.3283 14.8283C25.4345 14.7173 25.5178 14.5865 25.5733 14.4433C25.69 14.1593 25.69 13.8407 25.5733 13.5566Z" fill="#6563FF"/>
</svg>
