<svg width="28" height="28" viewBox="0 0 28 28" fill="none" xmlns="http://www.w3.org/2000/svg">
<path d="M24.5 2.33331H3.50001C3.19059 2.33331 2.89384 2.45623 2.67505 2.67502C2.45626 2.89381 2.33334 3.19056 2.33334 3.49998V24.5C2.33334 24.8094 2.45626 25.1061 2.67505 25.3249C2.89384 25.5437 3.19059 25.6666 3.50001 25.6666H24.5C24.8094 25.6666 25.1062 25.5437 25.325 25.3249C25.5438 25.1061 25.6667 24.8094 25.6667 24.5V3.49998C25.6667 3.19056 25.5438 2.89381 25.325 2.67502C25.1062 2.45623 24.8094 2.33331 24.5 2.33331ZM12.8333 23.3333H4.66668V15.1666H12.8333V23.3333ZM12.8333 12.8333H4.66668V4.66665H12.8333V12.8333ZM23.3333 23.3333H15.1667V15.1666H23.3333V23.3333ZM23.3333 12.8333H15.1667V4.66665H23.3333V12.8333Z" fill="#6563FF"/>
</svg>
