<svg width="29" height="29" viewBox="0 0 29 29" fill="none" xmlns="http://www.w3.org/2000/svg">
<g clip-path="url(#clip0_14_347)">
<path d="M14.5 29C22.5081 29 29 22.5081 29 14.5C29 6.49187 22.5081 0 14.5 0C6.49187 0 0 6.49187 0 14.5C0 22.5081 6.49187 29 14.5 29Z" fill="#534F4F"/>
<path d="M19.2148 4.45068H16.0027C14.0965 4.45068 11.9763 5.25239 11.9763 8.01547C11.9856 8.97823 11.9763 9.90027 11.9763 10.938H9.77112V14.4471H12.0445V24.5492H16.2221V14.3804H18.9794L19.2289 10.9281H16.1501C16.1501 10.9281 16.157 9.3924 16.1501 8.94642C16.1501 7.85452 17.2863 7.91704 17.3546 7.91704C17.8953 7.91704 18.9465 7.91862 19.2164 7.91704V4.45068H19.2148Z" fill="#3D3B3B"/>
</g>
<defs>
<clipPath id="clip0_14_347">
<rect width="29" height="29" fill="white"/>
</clipPath>
</defs>
</svg>
