<svg width="24" height="29" viewBox="0 0 24 29" fill="none" xmlns="http://www.w3.org/2000/svg">
<path d="M22.4233 14.0167C23.0041 13.1638 23.3282 12.0545 23.3333 10.9019C23.3333 9.66275 22.9646 8.47435 22.3082 7.59813C21.6518 6.72192 20.7616 6.22966 19.8333 6.22966H13.79C13.9764 5.52599 14.0337 4.77295 13.9573 4.03359C13.8809 3.29424 13.6729 2.59008 13.3507 1.98007C13.0286 1.37006 12.6017 0.871961 12.1057 0.527463C11.6097 0.182964 11.0591 0.00209552 10.5 0H3.5C2.57174 0 1.6815 0.492253 1.02513 1.36847C0.368749 2.24469 0 3.43309 0 4.67225C0.00514571 5.82482 0.329246 6.93418 0.91 7.78708C0.336053 8.64369 0.018746 9.75264 0.018746 10.9019C0.018746 12.0512 0.336053 13.1601 0.91 14.0167C0.336053 14.8734 0.018746 15.9823 0.018746 17.1316C0.018746 18.2808 0.336053 19.3898 0.91 20.2464C0.329246 21.0993 0.00514571 22.2087 0 23.3612C0 24.6004 0.368749 25.7888 1.02513 26.665C1.6815 27.5412 2.57174 28.0335 3.5 28.0335H19.8333C20.5074 28.0287 21.1661 27.7641 21.7302 27.2717C22.2944 26.7792 22.74 26.0797 23.0135 25.2573C23.287 24.4349 23.3769 23.5245 23.2722 22.6356C23.1675 21.7467 22.8727 20.9171 22.4233 20.2464C22.9973 19.3898 23.3146 18.2808 23.3146 17.1316C23.3146 15.9823 22.9973 14.8734 22.4233 14.0167ZM10.5 24.9186H3.5C3.19058 24.9186 2.89383 24.7546 2.67504 24.4625C2.45625 24.1704 2.33333 23.7743 2.33333 23.3612C2.33333 22.9482 2.45625 22.552 2.67504 22.26C2.89383 21.9679 3.19058 21.8038 3.5 21.8038H10.5C10.8094 21.8038 11.1062 21.9679 11.325 22.26C11.5438 22.552 11.6667 22.9482 11.6667 23.3612C11.6667 23.7743 11.5438 24.1704 11.325 24.4625C11.1062 24.7546 10.8094 24.9186 10.5 24.9186ZM10.5 18.689H3.5C3.19058 18.689 2.89383 18.5249 2.67504 18.2328C2.45625 17.9408 2.33333 17.5446 2.33333 17.1316C2.33333 16.7185 2.45625 16.3224 2.67504 16.0303C2.89383 15.7382 3.19058 15.5742 3.5 15.5742H10.5C10.8094 15.5742 11.1062 15.7382 11.325 16.0303C11.5438 16.3224 11.6667 16.7185 11.6667 17.1316C11.6667 17.5446 11.5438 17.9408 11.325 18.2328C11.1062 18.5249 10.8094 18.689 10.5 18.689ZM10.5 12.4593H3.5C3.19058 12.4593 2.89383 12.2952 2.67504 12.0032C2.45625 11.7111 2.33333 11.315 2.33333 10.9019C2.33333 10.4889 2.45625 10.0927 2.67504 9.80065C2.89383 9.50858 3.19058 9.34449 3.5 9.34449H10.5C10.8094 9.34449 11.1062 9.50858 11.325 9.80065C11.5438 10.0927 11.6667 10.4889 11.6667 10.9019C11.6667 11.315 11.5438 11.7111 11.325 12.0032C11.1062 12.2952 10.8094 12.4593 10.5 12.4593ZM10.5 6.22966H3.5C3.19058 6.22966 2.89383 6.06558 2.67504 5.77351C2.45625 5.48143 2.33333 5.0853 2.33333 4.67225C2.33333 4.25919 2.45625 3.86306 2.67504 3.57099C2.89383 3.27892 3.19058 3.11483 3.5 3.11483H10.5C10.8094 3.11483 11.1062 3.27892 11.325 3.57099C11.5438 3.86306 11.6667 4.25919 11.6667 4.67225C11.6667 5.0853 11.5438 5.48143 11.325 5.77351C11.1062 6.06558 10.8094 6.22966 10.5 6.22966ZM20.6383 24.467C20.5349 24.6126 20.4099 24.728 20.2714 24.8057C20.1328 24.8834 19.9836 24.9219 19.8333 24.9186H13.79C14.0698 23.914 14.0698 22.8085 13.79 21.8038H19.8333C20.1428 21.8038 20.4395 21.9679 20.6583 22.26C20.8771 22.552 21 22.9482 21 23.3612C20.9978 23.5684 20.9647 23.7729 20.9026 23.9628C20.8405 24.1526 20.7507 24.3241 20.6383 24.467ZM20.6383 18.2373C20.5349 18.383 20.4099 18.4983 20.2714 18.576C20.1328 18.6538 19.9836 18.6922 19.8333 18.689H13.79C14.0698 17.6843 14.0698 16.5788 13.79 15.5742H19.8333C20.1428 15.5742 20.4395 15.7382 20.6583 16.0303C20.8771 16.3224 21 16.7185 21 17.1316C20.9978 17.3387 20.9647 17.5432 20.9026 17.7331C20.8405 17.923 20.7507 18.0944 20.6383 18.2373ZM20.6383 12.0077C20.5349 12.1533 20.4099 12.2686 20.2714 12.3464C20.1328 12.4241 19.9836 12.4626 19.8333 12.4593H13.79C14.0698 11.4546 14.0698 10.3492 13.79 9.34449H19.8333C20.1428 9.34449 20.4395 9.50858 20.6583 9.80065C20.8771 10.0927 21 10.4889 21 10.9019C20.9978 11.1091 20.9647 11.3136 20.9026 11.5034C20.8405 11.6933 20.7507 11.8647 20.6383 12.0077Z" fill="#6563FF"/>
</svg>
