<svg width="28" height="28" viewBox="0 0 28 28" fill="none" xmlns="http://www.w3.org/2000/svg">
<path d="M17.2317 6.84833C17.4996 7.00043 17.8167 7.04041 18.114 6.95954C18.4112 6.87867 18.6644 6.68352 18.8183 6.41667C18.9457 6.19192 19.144 6.01579 19.3823 5.91591C19.6205 5.81603 19.8852 5.79804 20.1347 5.86477C20.3843 5.9315 20.6046 6.07916 20.7612 6.28461C20.9178 6.49006 21.0018 6.74168 21 7C21 7.30942 20.8771 7.60616 20.6583 7.82496C20.4395 8.04375 20.1428 8.16667 19.8333 8.16667C19.5239 8.16667 19.2272 8.28958 19.0084 8.50837C18.7896 8.72717 18.6667 9.02391 18.6667 9.33333C18.6667 9.64275 18.7896 9.9395 19.0084 10.1583C19.2272 10.3771 19.5239 10.5 19.8333 10.5C20.4476 10.4996 21.051 10.3375 21.5828 10.0301C22.1146 9.72267 22.5561 9.28067 22.863 8.74854C23.1699 8.21641 23.3313 7.61288 23.3311 6.9986C23.3308 6.38431 23.1689 5.78091 22.8616 5.24903C22.5543 4.71714 22.1124 4.2755 21.5804 3.96849C21.0483 3.66148 20.4448 3.4999 19.8305 3.5C19.2162 3.5001 18.6128 3.66187 18.0808 3.96905C17.5489 4.27623 17.1071 4.71801 16.8 5.25C16.7229 5.38316 16.6728 5.53026 16.6528 5.68283C16.6327 5.83541 16.6431 5.99044 16.6832 6.139C16.7233 6.28757 16.7924 6.42672 16.8866 6.54846C16.9807 6.6702 17.098 6.77211 17.2317 6.84833ZM22.2483 15.1667C21.9421 15.1269 21.6326 15.2102 21.3876 15.3983C21.1427 15.5864 20.9823 15.8639 20.9417 16.17C20.6968 18.1477 19.7373 19.9676 18.2439 21.287C16.7504 22.6064 14.8261 23.3342 12.8333 23.3333H6.31167L7.07 22.575C7.28729 22.3564 7.40926 22.0607 7.40926 21.7525C7.40926 21.4443 7.28729 21.1486 7.07 20.93C5.93244 19.788 5.15828 18.3348 4.84504 16.7536C4.5318 15.1725 4.69349 13.5339 5.30973 12.0445C5.92598 10.555 6.96922 9.2812 8.30805 8.38354C9.64688 7.48587 11.2214 7.00448 12.8333 7C13.1428 7 13.4395 6.87708 13.6583 6.65829C13.8771 6.4395 14 6.14275 14 5.83333C14 5.52391 13.8771 5.22717 13.6583 5.00837C13.4395 4.78958 13.1428 4.66667 12.8333 4.66667C10.8608 4.67489 8.93042 5.23861 7.26343 6.29323C5.59644 7.34784 4.26024 8.85071 3.40791 10.6296C2.55558 12.4086 2.22159 14.3916 2.44422 16.3516C2.66685 18.3116 3.43707 20.1692 4.66667 21.7117L2.67167 23.6717C2.50978 23.8357 2.40012 24.0441 2.35652 24.2704C2.31291 24.4967 2.33732 24.7309 2.42667 24.9433C2.51419 25.1564 2.66282 25.3388 2.85383 25.4675C3.04483 25.5962 3.26967 25.6655 3.5 25.6667H12.8333C15.39 25.667 17.859 24.7345 19.7771 23.0441C21.6952 21.3537 22.9307 19.0215 23.2517 16.485C23.273 16.3325 23.2639 16.1772 23.225 16.0282C23.186 15.8792 23.1179 15.7394 23.0246 15.6168C22.9314 15.4943 22.8147 15.3914 22.6815 15.3141C22.5483 15.2369 22.401 15.1867 22.2483 15.1667ZM20.2767 11.7483C20.0643 11.6544 19.8287 11.6259 19.6 11.6667L19.39 11.7367L19.18 11.8417L19.005 11.9933C18.9001 12.1008 18.8169 12.2276 18.76 12.3667C18.691 12.5122 18.659 12.6725 18.6667 12.8333C18.6633 12.9889 18.691 13.1436 18.7483 13.2883C18.8087 13.4284 18.8959 13.5552 19.005 13.6617C19.114 13.7698 19.2433 13.8553 19.3854 13.9134C19.5276 13.9715 19.6798 14.0009 19.8333 14C20.1428 14 20.4395 13.8771 20.6583 13.6583C20.8771 13.4395 21 13.1428 21 12.8333C21.0039 12.6803 20.972 12.5285 20.9067 12.39C20.7813 12.1097 20.557 11.8854 20.2767 11.76V11.7483Z" fill="#6563FF"/>
</svg>
