<svg width="55" height="19" viewBox="0 0 55 19" fill="none" xmlns="http://www.w3.org/2000/svg">
<g clip-path="url(#clip0_14_205)">
<path d="M53.2889 1.21294C53.2889 0.82686 53.6207 0.539123 54.0659 0.539123C54.5112 0.539123 54.843 0.82686 54.843 1.21294C54.843 1.59902 54.5112 1.88675 54.0659 1.88675C53.6207 1.88675 53.2889 1.59902 53.2889 1.21294ZM54.0113 2.03244C54.5112 2.03244 54.9564 1.69372 54.9564 1.21294C54.9564 0.732162 54.5112 0.393433 54.0113 0.393433C53.5115 0.393433 53.0662 0.730341 53.0662 1.21294C53.0662 1.64637 53.5094 2.03244 54.0113 2.03244ZM53.8433 1.26029H54.0113L54.2886 1.64637H54.4566L54.1205 1.21294C54.2886 1.21294 54.3999 1.11642 54.3999 0.97255C54.3999 0.779511 54.2886 0.68117 54.0113 0.68117H53.6207V1.64637H53.7887V1.26029H53.8433ZM53.8433 1.11642V0.82686H54.0659C54.1772 0.82686 54.2886 0.82686 54.2886 0.97255C54.2886 1.11824 54.1772 1.11642 54.0113 1.11642H53.8433Z" fill="black"/>
<path d="M49.9537 0.200369H2.66476C2.35026 0.198432 2.03847 0.250714 1.74748 0.354178C1.45649 0.457642 1.19213 0.610223 0.969741 0.803054C0.747357 0.995885 0.57139 1.22512 0.452069 1.47743C0.332748 1.72975 0.272453 2.00011 0.274688 2.27281V16.7271C0.272453 16.9998 0.332748 17.2701 0.452069 17.5225C0.57139 17.7748 0.747357 18.004 0.969741 18.1968C1.19213 18.3897 1.45649 18.5422 1.74748 18.6457C2.03847 18.7492 2.35026 18.8015 2.66476 18.7995H49.9537C50.2682 18.8015 50.58 18.7492 50.871 18.6457C51.1619 18.5422 51.4263 18.3897 51.6487 18.1968C51.8711 18.004 52.047 17.7748 52.1664 17.5225C52.2857 17.2701 52.346 16.9998 52.3437 16.7271V2.27281C52.3983 1.1164 51.2852 0.200369 49.9537 0.200369ZM20.3908 14.2704H14.8335V10.1765H11.1119V14.274H5.55468V4.73133H11.1119V8.82886H14.8335V4.73133H20.3908V14.2704ZM28.9492 14.2704H23.392V4.73133H28.9492V14.2704ZM40.8408 14.3196H31.7824V4.72951H40.8408C44.0079 4.72951 46.8978 6.80195 46.8978 9.5482C46.8978 12.2471 44.0079 14.3196 40.8408 14.3196Z" fill="#00549B"/>
<path d="M37.2283 5.59824V13.4509C39.5071 13.4509 40.8407 13.7897 40.8407 9.54826C40.8407 5.25951 39.2845 5.59824 37.2283 5.59824Z" fill="#00549B"/>
</g>
<defs>
<clipPath id="clip0_14_205">
<rect width="55" height="19" fill="white"/>
</clipPath>
</defs>
</svg>
