<svg width="30" height="30" viewBox="0 0 30 30" fill="none" xmlns="http://www.w3.org/2000/svg">
<path d="M10.0017 15C10.0017 12.2387 12.2395 9.9996 15.0009 9.9996C17.7622 9.9996 20.0013 12.2387 20.0013 15C20.0013 17.7613 17.7622 20.0004 15.0009 20.0004C12.2395 20.0004 10.0017 17.7613 10.0017 15ZM7.29854 15C7.29854 19.254 10.7469 22.7023 15.0009 22.7023C19.2549 22.7023 22.7032 19.254 22.7032 15C22.7032 10.746 19.2549 7.29768 15.0009 7.29768C10.7469 7.29768 7.29854 10.746 7.29854 15ZM21.2081 6.99228C21.208 7.34829 21.3134 7.69634 21.5111 7.99243C21.7087 8.28852 21.9897 8.51934 22.3186 8.65571C22.6475 8.79208 23.0094 8.82787 23.3586 8.75855C23.7077 8.68924 24.0285 8.51793 24.2804 8.2663C24.5322 8.01467 24.7038 7.69401 24.7734 7.34487C24.843 6.99573 24.8075 6.6338 24.6714 6.30483C24.5352 5.97587 24.3047 5.69466 24.0087 5.49675C23.7128 5.29885 23.3648 5.19314 23.0088 5.193H23.0081C22.5309 5.19322 22.0733 5.38284 21.7358 5.7202C21.3983 6.05756 21.2085 6.51508 21.2081 6.99228ZM8.94086 27.2096C7.47842 27.143 6.68354 26.8994 6.15529 26.6936C5.45498 26.421 4.9553 26.0963 4.42993 25.5716C3.90457 25.047 3.57937 24.5478 3.30793 23.8475C3.10201 23.3195 2.85841 22.5244 2.79193 21.0619C2.71921 19.4808 2.70469 19.0058 2.70469 15.0001C2.70469 10.9944 2.72041 10.5208 2.79193 8.93832C2.85853 7.47588 3.10393 6.68232 3.30793 6.15276C3.58057 5.45244 3.90529 4.95276 4.42993 4.4274C4.95458 3.90204 5.45377 3.57684 6.15529 3.3054C6.68329 3.09948 7.47842 2.85588 8.94086 2.7894C10.522 2.71668 10.9969 2.70216 15.0009 2.70216C19.0048 2.70216 19.4802 2.71788 21.0627 2.7894C22.5251 2.856 23.3187 3.1014 23.8482 3.3054C24.5485 3.57684 25.0482 3.90276 25.5736 4.4274C26.0989 4.95204 26.4229 5.45244 26.6956 6.15276C26.9015 6.68076 27.1451 7.47588 27.2116 8.93832C27.2843 10.5208 27.2988 10.9944 27.2988 15.0001C27.2988 19.0058 27.2843 19.4795 27.2116 21.0619C27.145 22.5244 26.9002 23.3192 26.6956 23.8475C26.4229 24.5478 26.0982 25.0475 25.5736 25.5716C25.0489 26.0958 24.5485 26.421 23.8482 26.6936C23.3202 26.8996 22.5251 27.1432 21.0627 27.2096C19.4815 27.2824 19.0066 27.2969 15.0009 27.2969C10.9951 27.2969 10.5215 27.2824 8.94086 27.2096ZM8.81666 0.09084C7.21982 0.16356 6.12865 0.41676 5.17573 0.78756C4.18885 1.17048 3.35341 1.6842 2.51857 2.51772C1.68373 3.35124 1.17133 4.188 0.788415 5.17488C0.417614 6.1284 0.164415 7.21896 0.0916945 8.8158C0.0177745 10.4152 0.000854492 10.9265 0.000854492 15C0.000854492 19.0735 0.0177745 19.5848 0.0916945 21.1842C0.164415 22.7812 0.417614 23.8716 0.788415 24.8251C1.17133 25.8114 1.68385 26.6491 2.51857 27.4823C3.35329 28.3154 4.18885 28.8284 5.17573 29.2124C6.13046 29.5832 7.21982 29.8364 8.81666 29.9092C10.4169 29.9819 10.9273 30 15.0009 30C19.0744 30 19.5857 29.9831 21.1851 29.9092C22.782 29.8364 23.8725 29.5832 24.826 29.2124C25.8123 28.8284 26.6483 28.3158 27.4831 27.4823C28.318 26.6488 28.8293 25.8114 29.2133 24.8251C29.5841 23.8716 29.8385 22.781 29.91 21.1842C29.9827 19.5836 29.9997 19.0735 29.9997 15C29.9997 10.9265 29.9827 10.4152 29.91 8.8158C29.8373 7.21884 29.5841 6.1278 29.2133 5.17488C28.8293 4.1886 28.3167 3.35256 27.4831 2.51772C26.6496 1.68288 25.8123 1.17048 24.8272 0.78756C23.8725 0.41676 22.7819 0.16236 21.1863 0.09084C19.5869 0.01812 19.0756 0 15.0021 0C10.9285 0 10.4169 0.01692 8.81666 0.09084Z" fill="#534F4F"/>
</svg>
