<svg width="28" height="28" viewBox="0 0 28 28" fill="none" xmlns="http://www.w3.org/2000/svg">
<path d="M11.6667 16.3333H16.3333C16.6428 16.3333 16.9395 16.2104 17.1583 15.9916C17.3771 15.7728 17.5 15.4761 17.5 15.1667C17.5 14.8572 17.3771 14.5605 17.1583 14.3417C16.9395 14.1229 16.6428 14 16.3333 14H11.6667C11.3573 14 11.0605 14.1229 10.8417 14.3417C10.6229 14.5605 10.5 14.8572 10.5 15.1667C10.5 15.4761 10.6229 15.7728 10.8417 15.9916C11.0605 16.2104 11.3573 16.3333 11.6667 16.3333ZM22.1667 3.5H5.83334C4.90509 3.5 4.01485 3.86875 3.35847 4.52513C2.70209 5.1815 2.33334 6.07174 2.33334 7V10.5C2.33334 10.8094 2.45626 11.1062 2.67505 11.325C2.89384 11.5437 3.19059 11.6667 3.50001 11.6667H4.66668V21C4.66668 21.9283 5.03543 22.8185 5.6918 23.4749C6.34818 24.1313 7.23842 24.5 8.16668 24.5H19.8333C20.7616 24.5 21.6518 24.1313 22.3082 23.4749C22.9646 22.8185 23.3333 21.9283 23.3333 21V11.6667H24.5C24.8094 11.6667 25.1062 11.5437 25.325 11.325C25.5438 11.1062 25.6667 10.8094 25.6667 10.5V7C25.6667 6.07174 25.2979 5.1815 24.6416 4.52513C23.9852 3.86875 23.0949 3.5 22.1667 3.5ZM21 21C21 21.3094 20.8771 21.6062 20.6583 21.825C20.4395 22.0438 20.1428 22.1667 19.8333 22.1667H8.16668C7.85726 22.1667 7.56051 22.0438 7.34172 21.825C7.12293 21.6062 7.00001 21.3094 7.00001 21V11.6667H21V21ZM23.3333 9.33333H4.66668V7C4.66668 6.69058 4.78959 6.39383 5.00839 6.17504C5.22718 5.95625 5.52392 5.83333 5.83334 5.83333H22.1667C22.4761 5.83333 22.7728 5.95625 22.9916 6.17504C23.2104 6.39383 23.3333 6.69058 23.3333 7V9.33333Z" fill="#6563FF"/>
</svg>
