<svg width="28" height="28" viewBox="0 0 28 28" fill="none" xmlns="http://www.w3.org/2000/svg">
<path d="M22.1667 7.58328H20.6733L20.3 6.41661C20.058 5.73205 19.609 5.1397 19.0154 4.72163C18.4217 4.30357 17.7127 4.08048 16.9867 4.08328H11.0133C10.2801 4.08465 9.56589 4.31624 8.97139 4.74537C8.3769 5.17449 7.93218 5.77948 7.7 6.47494L7.32667 7.64161H5.83333C4.90508 7.64161 4.01484 8.01036 3.35846 8.66674C2.70208 9.32311 2.33333 10.2134 2.33333 11.1416V20.4749C2.33333 21.4032 2.70208 22.2934 3.35846 22.9498C4.01484 23.6062 4.90508 23.9749 5.83333 23.9749H22.1667C23.0949 23.9749 23.9852 23.6062 24.6415 22.9498C25.2979 22.2934 25.6667 21.4032 25.6667 20.4749V11.1416C25.6744 10.6771 25.5896 10.2157 25.4172 9.7843C25.2448 9.3529 24.9882 8.96015 24.6624 8.62894C24.3366 8.29773 23.9482 8.0347 23.5197 7.85517C23.0912 7.67564 22.6312 7.58321 22.1667 7.58328ZM23.3333 20.4166C23.3333 20.726 23.2104 21.0228 22.9916 21.2416C22.7728 21.4604 22.4761 21.5833 22.1667 21.5833H5.83333C5.52391 21.5833 5.22717 21.4604 5.00838 21.2416C4.78958 21.0228 4.66667 20.726 4.66667 20.4166V11.0833C4.66667 10.7739 4.78958 10.4771 5.00838 10.2583C5.22717 10.0395 5.52391 9.91661 5.83333 9.91661H8.16667C8.42108 9.92989 8.67284 9.85953 8.88351 9.71628C9.09417 9.57303 9.25216 9.36476 9.33333 9.12328L9.96333 7.20994C10.0416 6.97822 10.1907 6.77695 10.3896 6.63459C10.5885 6.49223 10.8271 6.41598 11.0717 6.41661H17.045C17.2896 6.41598 17.5282 6.49223 17.7271 6.63459C17.926 6.77695 18.0751 6.97822 18.1533 7.20994L18.7833 9.12328C18.8582 9.34581 18.9985 9.54058 19.1858 9.68212C19.3731 9.82366 19.5988 9.90539 19.8333 9.91661H22.1667C22.4761 9.91661 22.7728 10.0395 22.9916 10.2583C23.2104 10.4771 23.3333 10.7739 23.3333 11.0833V20.4166ZM14 9.91661C13.077 9.91661 12.1748 10.1903 11.4073 10.7031C10.6399 11.2159 10.0418 11.9447 9.68856 12.7974C9.33535 13.6501 9.24294 14.5885 9.423 15.4937C9.60307 16.3989 10.0475 17.2305 10.7002 17.8831C11.3528 18.5358 12.1843 18.9802 13.0896 19.1603C13.9948 19.3403 14.9331 19.2479 15.7859 18.8947C16.6386 18.5415 17.3674 17.9434 17.8802 17.1759C18.393 16.4085 18.6667 15.5063 18.6667 14.5833C18.6667 13.3456 18.175 12.1586 17.2998 11.2834C16.4247 10.4083 15.2377 9.91661 14 9.91661ZM14 16.9166C13.5385 16.9166 13.0874 16.7798 12.7037 16.5234C12.32 16.267 12.0209 15.9026 11.8443 15.4762C11.6677 15.0498 11.6215 14.5807 11.7115 14.1281C11.8015 13.6754 12.0238 13.2597 12.3501 12.9334C12.6764 12.607 13.0922 12.3848 13.5448 12.2948C13.9974 12.2047 14.4666 12.251 14.8929 12.4276C15.3193 12.6042 15.6837 12.9032 15.9401 13.2869C16.1965 13.6707 16.3333 14.1218 16.3333 14.5833C16.3333 15.2021 16.0875 15.7956 15.6499 16.2332C15.2123 16.6708 14.6188 16.9166 14 16.9166Z" fill="#6563FF"/>
</svg>
