<svg width="28" height="28" viewBox="0 0 28 28" fill="none" xmlns="http://www.w3.org/2000/svg">
<path d="M23.1738 5.61116C22.0536 4.49122 20.5345 3.86206 18.9505 3.86206C17.3665 3.86206 15.8473 4.49122 14.7271 5.61116L5.67379 14.6645C5.1058 15.2161 4.65314 15.8752 4.34214 16.6033C4.03114 17.3314 3.86801 18.1141 3.86222 18.9059C3.85643 19.6977 4.00811 20.4827 4.30844 21.2153C4.60876 21.9479 5.05174 22.6135 5.61161 23.1733C6.17148 23.7332 6.83707 24.1762 7.56968 24.4765C8.30229 24.7768 9.08729 24.9285 9.87905 24.9227C10.6708 24.9169 11.4535 24.7538 12.1816 24.4428C12.9098 24.1318 13.5688 23.6791 14.1205 23.1112L23.1738 14.0578C24.2937 12.9376 24.9229 11.4185 24.9229 9.83449C24.9229 8.25049 24.2937 6.73134 23.1738 5.61116ZM12.4638 21.4662C11.7685 22.1234 10.848 22.4895 9.89129 22.4895C8.93455 22.4895 8.01409 22.1234 7.31879 21.4662C6.63984 20.7821 6.25883 19.8574 6.25883 18.8937C6.25883 17.9299 6.63984 17.0052 7.31879 16.3212L11.0288 12.6112L16.1738 17.7562L12.4638 21.4662ZM21.5288 12.4012L17.8188 16.1112L12.6738 10.9662L16.3838 7.25616C17.0733 6.6102 17.987 6.25766 18.9317 6.27307C19.8764 6.28848 20.7781 6.67062 21.4462 7.33872C22.1143 8.00682 22.4965 8.90852 22.5119 9.85323C22.5273 10.7979 22.1748 11.7116 21.5288 12.4012Z" fill="#6563FF"/>
</svg>
