<svg width="42" height="42" viewBox="0 0 42 42" fill="none" xmlns="http://www.w3.org/2000/svg">
<path fill-rule="evenodd" clip-rule="evenodd" d="M0 0H42V42H0V0Z" fill="white"/>
<path fill-rule="evenodd" clip-rule="evenodd" d="M17.5022 14.0444C17.6706 14.0444 17.8063 13.9076 17.8063 13.7394C17.8074 13.6987 17.8004 13.6582 17.7855 13.6203C17.7707 13.5825 17.7485 13.5479 17.7201 13.5188C17.6917 13.4896 17.6578 13.4664 17.6203 13.4506C17.5828 13.4348 17.5425 13.4266 17.5018 13.4266C17.4611 13.4266 17.4209 13.4348 17.3834 13.4506C17.3459 13.4664 17.312 13.4896 17.2836 13.5188C17.2552 13.5479 17.2329 13.5825 17.2181 13.6203C17.2033 13.6582 17.1962 13.6987 17.1973 13.7394C17.1973 13.9076 17.3329 14.0444 17.5022 14.0444ZM21.1841 20.2955C21.6364 20.2955 21.9408 20.2345 22.186 20.1441C22.4298 20.0535 22.6172 19.9443 22.7536 19.8325C22.883 19.7266 22.9651 19.6192 23.1033 19.5486C23.2251 19.4856 23.3966 19.4708 23.589 19.4708C23.8653 19.4708 24.1762 19.5562 24.4035 19.6813L24.4361 19.2584C24.2847 19.1836 23.7509 18.9965 23.2872 18.9965C22.7603 18.9965 22.5612 19.1385 22.3666 19.3142C22.1402 19.5194 21.8541 19.7635 21.0806 19.7635C20.8745 19.7635 20.3799 19.7077 20.179 19.7077C20.0569 19.7077 19.9632 19.7382 19.9632 19.7382C20.0001 19.8539 20.0789 20.1727 20.0789 20.1727C20.2642 20.1958 20.5873 20.2955 21.1841 20.2955ZM18.806 19.0414C18.9627 19.0414 19.4183 19.1109 19.9445 19.1614C20.2435 19.1895 20.5633 19.2118 20.8653 19.2118C21.4565 19.2118 22.1038 18.9307 22.6762 18.6372L22.5642 18.2299C22.2969 18.3764 21.7881 18.5391 21.3641 18.6067C21.2597 18.6237 20.9566 18.6278 20.8703 18.6141C20.7274 18.5919 20.5559 18.5404 20.3716 18.5069C20.1127 18.4583 19.8299 18.4467 19.6623 18.4393C19.4773 18.431 19.1457 18.4624 18.9827 18.4731C18.384 18.5088 17.9883 18.6498 17.6096 18.9054C17.4183 19.0348 17.174 19.2462 16.9855 19.502C17.0825 19.5092 17.359 19.5863 17.359 19.5863C17.7673 19.239 18.3809 19.0414 18.806 19.0414Z" fill="#2463A9"/>
<path fill-rule="evenodd" clip-rule="evenodd" d="M11.5907 19.2381C11.8823 19.2381 11.9993 19.3326 12.1601 19.4294C12.2728 19.4989 12.3612 19.5756 12.4453 19.6516C12.6253 19.8124 12.5739 19.9599 12.4327 20.0713C12.3601 20.129 12.298 20.1985 12.115 20.3175C12.0268 20.3757 11.8742 20.4692 11.7701 20.5132C11.5868 20.589 11.5071 20.5975 11.4406 20.5975C11.3733 20.5975 11.2661 20.587 11.206 20.5271L10.7399 20.8121C10.8798 20.9213 11.0386 20.9583 11.306 20.9583C11.608 20.9583 11.849 20.8932 12.1466 20.7766C12.5325 20.6239 12.9663 20.3238 13.1103 20.2417C13.4051 20.0733 13.7028 19.9639 14.0216 19.9639C14.3024 19.9639 14.619 20.1301 14.9737 20.2996C15.3925 20.5005 15.9039 20.6973 16.3741 20.6973C16.6561 20.6973 16.9718 20.6561 17.3024 20.5888C17.8894 20.4689 18.5206 20.2711 19.1383 20.0617L18.9376 19.7011C18.7871 19.7567 18.2713 19.9018 17.7168 20.0251C17.257 20.126 16.7907 20.2173 16.5489 20.2173C16.3513 20.2173 16.1185 20.2029 15.9102 20.1386C15.5566 20.0323 15.2389 19.9207 15.2389 19.6366C15.2389 19.4401 15.323 19.301 15.561 19.2054C15.946 19.0507 16.5458 19.0603 16.8613 19.0603C16.9204 18.9971 17.1592 18.7099 17.1592 18.7099C16.9063 18.659 16.6491 18.6329 16.3911 18.6321C15.9957 18.6321 15.6302 18.6827 15.3274 18.8099C15.0465 18.928 14.8256 19.0984 14.6656 19.3287C14.6014 19.4202 14.5351 19.5074 14.4386 19.5074C14.2784 19.5074 14.0006 19.3769 13.7104 19.3769C13.584 19.3769 13.4768 19.403 13.3653 19.403C13.0715 19.403 12.6887 19.1895 12.3477 19.0075C12.1331 18.8929 11.9121 18.7855 11.6555 18.7855C11.5491 18.7855 11.4031 18.8119 11.2735 18.8666C11.0242 18.9707 10.7715 19.1392 10.6442 19.2453L10.8726 19.4021C11.0057 19.3326 11.248 19.2381 11.5907 19.2381ZM32.2051 22.5134C31.1076 21.5878 30.0458 20.5751 29.2971 19.7471C28.0041 18.3194 26.2427 15.5951 25.6411 14.0536C25.4188 13.4864 24.9602 13.679 25.1951 14.2558C25.7631 15.649 27.0731 17.6976 28.4408 19.3865C28.122 19.2453 27.7267 19.0557 27.513 18.9614C27.4402 19.0803 27.2602 19.3159 27.075 19.5094C26.8606 19.7325 26.6397 19.9133 26.5713 19.9765C26.4207 20.1166 26.3104 20.1271 26.2091 19.9715C26.1632 19.8976 26.0653 19.7654 26.0145 19.5357L25.7239 19.1677C25.5681 18.972 24.8384 17.9736 24.6148 17.6379C24.3919 17.3034 24.1028 16.9454 23.6343 16.9454C23.0547 16.9454 22.8547 17.5873 22.8096 18.1732L23.1944 18.0059C23.2841 17.6429 23.4622 17.4535 23.6345 17.4535C23.7574 17.4535 23.9082 17.6324 23.9082 17.766C23.8524 17.9229 23.7511 18.2469 23.7018 18.4972L24.081 18.6258C24.081 18.4415 24.1583 18.1068 24.2649 17.9333C24.2649 17.9333 24.3699 18.0227 24.4091 18.0954C24.4342 18.1425 24.6216 18.4288 24.8386 18.8097C25.0323 19.1496 25.2476 19.5695 25.4454 19.904C25.5411 20.065 25.6509 20.2092 25.7241 20.3227C25.8219 20.4724 25.9097 20.5772 26.0028 20.6302C26.0899 20.6783 26.1841 20.6796 26.2599 20.6796C26.505 20.6796 26.6175 20.5984 26.7837 20.4567C27.0953 20.1881 27.3637 19.8148 27.6413 19.4802L28.2959 19.7756C28.549 19.896 28.8044 20.0114 29.062 20.1218C29.62 20.7555 30.2447 21.3762 30.9001 21.9665L31.3453 22.3589C31.4666 22.464 31.5882 22.567 31.7118 22.6692L32.2051 22.5134Z" fill="#2463A9"/>
<path fill-rule="evenodd" clip-rule="evenodd" d="M34.6619 22.3233C33.5408 19.8694 32.0637 16.8516 30.8002 15.003L30.5051 14.5883C30.0833 14.0194 29.6268 13.5477 29.1795 13.0901L28.8322 12.7482C27.9567 11.9 26.9742 11.052 26.2255 10.4477C25.5651 9.91564 25.0955 8.68848 23.5827 8.68848C22.2191 8.68848 21.7528 9.61539 21.6003 10.1586C21.499 10.5151 21.4552 10.6382 21.3602 10.772L20.4941 11.8032L21.5158 11.7211L20.9981 12.5807C21.2948 12.5188 23.0866 12.1588 23.455 12.7376C23.9023 13.4374 23.5971 14.197 24.4334 15.7891L24.7951 16.4184C25.2112 17.0878 25.7041 17.7452 26.1421 18.264L25.7233 19.1678L26.0139 19.5358L26.665 18.1629C26.3327 17.8661 25.338 16.5287 24.9269 15.7848C23.9923 14.0929 24.3595 13.2226 23.7893 12.4471C23.2611 11.7274 21.7504 12.0673 21.7504 12.0673L22.3076 11.2857L21.3432 11.4034L21.7892 10.867C21.8842 10.7282 21.9062 10.6441 21.945 10.5101C22.1344 9.82326 22.6309 9.14235 23.5738 9.14235C24.7186 9.14235 25.0458 10.0211 25.8416 10.7208C26.6471 11.43 28.3362 12.7936 29.8815 14.557C31.1276 15.9785 32.7248 19.2835 33.9517 21.8921C32.6104 21.2384 30.3387 18.9911 29.3871 17.3074L28.9381 17.2549C29.9597 19.1931 32.1524 21.4498 34.3211 22.6785L34.6619 22.3233Z" fill="#2463A9"/>
<path fill-rule="evenodd" clip-rule="evenodd" d="M31.5556 14.2223C31.9131 13.9654 32.3365 13.756 32.7825 13.5867C33.0571 13.9192 33.7042 14.2105 34.2176 14.2789L34.1354 14.8221C33.5661 14.5347 32.5596 14.2421 31.5556 14.2223L31.1054 14.6092C32.4677 14.6345 33.3349 14.9104 34.4577 15.3828L34.6806 13.9486C34.2354 13.8876 33.5336 13.7603 33.2907 13.4152C34.3176 13.1025 35.3833 12.9846 36.0126 12.9933V11.2265C35.7317 11.3907 35.3781 11.5444 35.0445 11.6476C34.6364 11.7727 34.2653 11.8276 34.1631 11.6476C34.0502 11.4498 34.6133 11.0972 35.1935 10.7889L33.8875 9.70405C33.6896 9.97031 33.2401 10.7153 32.7819 11.2075C32.4564 11.557 32.121 11.7862 31.9295 11.6433C31.829 11.5675 31.8251 11.3487 31.9081 11.0731C32.067 10.5436 32.4847 9.8082 32.7392 9.48419L30.9339 9.31358C30.9339 10.0514 30.5875 10.8637 30.1611 11.5202C29.7933 12.0852 29.2597 12.4959 28.8324 12.7482L29.1797 13.0901C29.7079 12.7229 30.2223 12.2736 30.6202 11.6337C30.9403 11.1193 31.2377 10.4974 31.3492 9.7692L31.9744 9.84176C31.7144 10.3183 31.4207 11.0582 31.3985 11.5422C31.4142 11.8714 31.4776 11.9303 31.6471 12.0555C31.9606 12.2902 32.3489 12.1325 32.7191 11.8156C33.1272 11.4672 33.5286 10.8833 33.9358 10.3549L34.4636 10.795C33.7946 11.2073 33.6053 11.6483 33.8095 11.9407C33.889 12.0542 34.0609 12.1396 34.2742 12.146C34.4858 12.1512 34.7364 12.0889 35.01 12.0237C35.2024 11.9773 35.411 11.9102 35.6034 11.8512V12.5541C34.0831 12.6626 31.4885 13.2779 30.5056 14.5879L30.8006 15.0025C30.8858 14.8626 30.9886 14.7319 31.1056 14.6088L31.5556 14.2223ZM11.6762 10.7689L11.8804 10.9223C12.4151 10.4867 13.04 9.69446 13.3925 8.9484L13.2104 8.81897C12.8694 9.13164 12.056 10.1509 11.6762 10.7689Z" fill="#2463A9"/>
<path fill-rule="evenodd" clip-rule="evenodd" d="M11.3626 10.2921C11.0628 9.23383 11.8317 8.6002 12.6347 8.65903C12.9358 8.07922 13.408 7.96352 13.91 8.26443C14.3771 8.54551 14.3381 9.25976 13.9488 9.59444C14.0878 10.2309 13.5228 11.138 12.6453 11.0929C12.7495 11.9714 11.6718 12.4713 11.0186 11.8976C10.4756 11.4212 10.5891 10.6279 11.3626 10.2921ZM10.9911 10.1302C10.7124 10.1912 10.5671 10.3311 10.4429 10.6334C10.5261 9.94612 10.0694 9.28743 9.31704 9.33798C9.39069 8.11016 8.17442 7.37892 7.0989 7.97659C6.46353 7.43252 5.7532 7.54299 5.32591 8.04915C4.91758 8.53309 4.93131 9.34953 5.75647 9.78531C5.54795 10.6334 6.32473 11.4762 7.23792 11.2803C7.29043 11.5413 7.48196 11.6812 7.73449 11.7853C7.35471 11.8076 7.19891 12.1852 7.19891 12.1852C5.98787 11.8749 5.36296 12.6798 5.34269 13.5246C4.45892 13.793 4.21161 14.8977 4.88839 15.5429C5.58804 16.212 6.42257 15.9375 6.78644 15.2533C7.56715 15.5501 8.40277 15.0681 8.42456 14.2055C9.29482 14.2874 9.62841 13.6015 9.54736 12.8787L9.2715 12.8565C9.15275 13.5278 8.83376 13.8172 8.10556 13.8172C8.07397 14.4621 7.38478 15.0219 6.60407 14.8737C6.38509 15.3893 5.74231 15.5575 5.30347 15.1263C4.86573 14.6949 5.01084 13.8836 5.78327 13.7372C5.75168 12.9461 6.52171 12.4558 7.62141 12.5083C7.93386 12.1211 8.1864 11.9568 8.65465 12.0021L8.65901 11.7771C8.22017 11.718 7.72556 11.3023 7.68895 10.8554C6.75245 10.9299 6.11142 10.3932 6.14323 9.55152C5.54141 9.26956 5.6497 8.65184 5.8445 8.41739C6.18005 8.01233 6.64917 8.04479 7.02831 8.37207C8.09837 7.96287 8.95992 8.80763 8.95992 9.73041C8.95992 9.73041 9.45998 9.72082 9.74084 10.0134C10.1123 10.4017 10.1123 10.7395 10.2006 11.116C10.2838 11.4716 10.4627 11.9442 10.8994 12.285C11.6716 12.887 12.8682 12.7238 12.9903 11.4539C14.0181 11.5452 14.6937 10.7384 14.3549 9.75154C15.0746 9.23797 14.9315 8.17945 14.2549 7.77003C14.103 7.66973 13.9312 7.60343 13.7514 7.57568C13.5715 7.54793 13.3877 7.55938 13.2126 7.60925C13.0376 7.65912 12.8754 7.74623 12.7371 7.86461C12.5988 7.983 12.4878 8.12986 12.4115 8.29515C11.3583 8.05307 10.4998 9.10331 10.9911 10.1302ZM15.7429 16.2824C15.8355 15.912 15.3472 15.8571 15.2799 16.1983C15.2084 16.5635 14.7643 17.1865 14.3436 17.5767L14.4939 17.7388C15.0463 17.3261 15.6241 16.755 15.7429 16.2824ZM18.1955 10.1638C18.2758 10.1608 18.3518 10.1268 18.4075 10.0689C18.4632 10.0111 18.4944 9.93385 18.4944 9.85351C18.4944 9.77318 18.4632 9.69597 18.4075 9.63811C18.3518 9.58025 18.2758 9.54625 18.1955 9.54324C18.024 9.54324 17.8863 9.68312 17.8863 9.85351C17.8863 10.025 18.024 10.1638 18.1955 10.1638ZM22.7642 10.4468C22.7666 10.3508 22.8064 10.2595 22.8751 10.1924C22.9439 10.1253 23.0361 10.0878 23.1322 10.0878C23.2282 10.0878 23.3205 10.1253 23.3892 10.1924C23.4579 10.2595 23.4977 10.3508 23.5001 10.4468C23.5002 10.4952 23.4908 10.5432 23.4724 10.588C23.454 10.6328 23.4269 10.6735 23.3928 10.7078C23.3586 10.7421 23.318 10.7693 23.2733 10.7879C23.2286 10.8065 23.1807 10.8161 23.1323 10.8162C22.9296 10.8162 22.7642 10.651 22.7642 10.4468ZM22.1812 17.0662C19.7865 16.8823 17.4024 17.0326 17.4024 17.0326L17.5704 16.5938C19.86 16.4275 22.2149 16.5938 22.2149 16.5938L22.1812 17.0662Z" fill="#2463A9"/>
<path fill-rule="evenodd" clip-rule="evenodd" d="M7.71031 18.7331C7.71031 18.7331 7.84605 18.9144 8.05763 19.1395C8.12931 19.2406 8.20797 19.3129 8.30777 19.4068C8.74682 19.835 9.39265 20.1559 10.0587 20.2843C10.2481 20.3205 10.4165 20.3486 10.6039 20.3486C10.888 20.3486 11.1497 20.196 11.3171 20.0463L11.0563 19.7422C10.9722 19.7672 10.7974 19.7672 10.6817 19.7672C9.71579 19.7672 8.49014 19.1351 8.20797 18.4026C8.17943 18.3311 8.14587 18.2912 8.17442 18.2237C8.20165 18.1564 8.23761 18.0145 8.25743 17.884C8.3143 17.9491 8.43088 18.047 8.57926 18.1426C8.93922 18.3732 9.62318 18.6919 9.75675 18.7773C10.037 18.6972 10.3084 18.5889 10.5669 18.4542C10.7678 18.3501 11.0425 18.2564 11.3602 18.2564C12.0662 18.2564 12.8774 18.6582 13.6394 19.0338L14.1601 18.8296C13.4836 18.3531 12.0128 17.687 11.1942 17.687C10.7122 17.687 10.2586 18.0406 9.93586 18.0406C9.53908 18.0406 8.40277 17.4861 8.40277 17.0242C8.40277 16.6686 9.13815 16.4664 10.3207 16.321C10.1144 16.6253 9.92101 16.9381 9.74106 17.2586L10.042 17.426C11.8938 14.7396 13.8193 12.9954 15.4398 11.9336C16.029 11.5472 16.1628 11.3213 16.3678 10.8992C16.8698 9.87231 17.3433 9.08202 18.1672 9.08202C18.5511 9.08202 18.8657 9.29882 19.0817 9.56617L19.6772 9.74506L19.074 10.1543L19.6909 10.4005C18.8858 10.6267 17.7863 11.4106 17.3403 12.5607C16.4826 12.606 16.0691 13.3015 15.7893 13.8844C15.5997 14.277 15.2991 14.4337 14.8602 14.7315L11.3532 17.18L11.8361 17.2473L15.0757 15.0734C15.7157 14.6422 16.0185 14.3243 16.1724 14.0168C16.4722 13.415 16.7964 12.9679 17.432 12.9679C17.7445 12.9679 18.0778 13.1015 18.3452 13.3551L18.9143 13.5403L18.2935 13.9201L18.8143 14.2413C17.3265 14.7076 16.4057 15.7744 15.8712 17.8134L16.2648 17.9019C16.4615 17.2275 16.6572 16.6078 17.0054 16.0604C17.866 16.0511 18.7387 16.0195 19.5939 16.0195C21.8772 16.0195 23.7731 16.1162 24.7959 16.4182L24.4342 15.789C23.3401 15.6016 21.7521 15.5059 19.5941 15.5059C18.8714 15.5059 18.1378 15.5321 17.4098 15.5406C17.8802 15.0429 18.5557 14.623 19.5974 14.3001L18.8588 13.8929L19.6793 13.4362L18.5609 13.0193C18.3652 12.8437 18.1221 12.6827 17.8161 12.6047C18.1748 11.503 19.3943 10.8591 20.5644 10.4151L19.7449 10.0793L20.5707 9.62697L19.2987 9.2206C18.9662 8.82926 18.6474 8.65125 18.1569 8.65125C16.9764 8.65125 16.4798 9.67708 16.0126 10.5863C15.7653 11.0661 15.6106 11.2681 15.1918 11.5418C14.2837 12.1362 13.1273 13.0453 12.0228 14.2101C11.4461 13.7937 10.2664 12.5748 9.94784 11.91C9.82146 12.0667 9.69639 12.4079 9.69639 12.4079C9.81754 12.535 11.2053 13.9397 11.7217 14.5352C11.6827 14.5783 11.6441 14.6215 11.6051 14.6657C11.0547 14.7751 9.62601 14.913 9.13968 14.8468L8.86623 15.332C9.22902 15.2963 10.6497 15.1287 11.2389 15.0941C11.0583 15.3135 10.8832 15.5373 10.7137 15.7654C8.88823 15.9737 7.6676 16.3483 7.6676 17.024C7.6676 17.1355 7.7127 17.2617 7.7127 17.3804C7.7127 17.6635 7.60637 17.7678 7.40548 17.894C7.27496 17.9772 7.26646 18.0341 7.32246 18.1119C7.62533 18.6013 6.68469 18.8442 7.34011 19.7197L7.89573 19.7533C7.89552 19.7535 7.35362 19.4382 7.71031 18.7331ZM6.99017 9.01338L6.80932 9.19859C7.06927 9.5701 8.22039 10.6014 8.80413 10.9844L9.01875 10.7182C8.63591 10.2678 7.54776 9.29664 6.99017 9.01338ZM6.19574 14.2116L6.36613 14.3977C6.80497 14.1853 7.62969 13.575 8.07593 13.1174L7.95304 12.9352C7.42879 13.1542 6.61867 13.7538 6.19574 14.2116Z" fill="#2463A9"/>
<path fill-rule="evenodd" clip-rule="evenodd" d="M31.617 21.8147C31.6171 21.7385 31.6021 21.6631 31.5731 21.5927C31.544 21.5223 31.5013 21.4583 31.4475 21.4044C31.3936 21.3505 31.3297 21.3077 31.2594 21.2785C31.189 21.2493 31.1136 21.2343 31.0374 21.2343L30.1791 21.2338C30.1028 21.234 30.0273 21.2491 29.9569 21.2785C29.8865 21.3078 29.8225 21.3507 29.7687 21.4048C29.7149 21.4589 29.6722 21.523 29.6432 21.5936C29.6142 21.6641 29.5993 21.7397 29.5995 21.816L29.6 30.7943C29.5998 30.8705 29.6147 30.946 29.6437 31.0165C29.6728 31.0869 29.7154 31.151 29.7693 31.2049C29.8231 31.2589 29.887 31.3017 29.9575 31.3309C30.0279 31.3601 30.1033 31.3752 30.1796 31.3752H31.0378C31.1141 31.375 31.1895 31.3598 31.2599 31.3305C31.3302 31.3011 31.3941 31.2582 31.4479 31.2042C31.5017 31.1502 31.5443 31.0861 31.5733 31.0156C31.6023 30.9451 31.6172 30.8696 31.617 30.7934V21.8147ZM32.711 22.0535V22.4804C32.7112 22.5224 32.7196 22.5641 32.7358 22.6029C32.7521 22.6417 32.7758 22.6769 32.8056 22.7065C32.8355 22.7362 32.8708 22.7597 32.9098 22.7756C32.9487 22.7916 32.9904 22.7997 33.0324 22.7996H38.9552C39.2249 22.7996 39.4441 22.5817 39.4441 22.3115V21.5885C39.4441 21.3188 39.2223 21.0741 38.9538 21.1005C38.9538 21.1005 33.2292 21.6622 33.0444 21.6831C32.8311 21.7066 32.711 21.8768 32.711 22.0535ZM27.9165 31.3756C26.4431 31.3756 25.5158 30.2585 25.5158 29.0145L25.5145 25.4224H25.0927C25.0392 25.4224 24.9863 25.412 24.937 25.3916C24.8876 25.3712 24.8427 25.3413 24.805 25.3035C24.7672 25.2658 24.7372 25.221 24.7168 25.1716C24.6963 25.1223 24.6858 25.0694 24.6858 25.016V24.4146C24.6858 24.19 24.8689 24.0095 25.0931 24.0095L25.5145 24.01L25.5136 21.8012C25.5135 21.7269 25.528 21.6533 25.5563 21.5846C25.5847 21.5159 25.6263 21.4535 25.6788 21.4009C25.7313 21.3483 25.7937 21.3066 25.8623 21.2782C25.9309 21.2497 26.0045 21.2351 26.0788 21.2351H26.916C27.0661 21.2356 27.21 21.2956 27.316 21.402C27.4219 21.5084 27.4814 21.6526 27.4812 21.8027L27.4816 24.0098H28.7868C29.0119 24.0098 29.1949 24.1906 29.1949 24.4153V25.0166C29.1949 25.07 29.1843 25.1228 29.1639 25.1721C29.1434 25.2214 29.1134 25.2661 29.0756 25.3038C29.0378 25.3414 28.993 25.3713 28.9436 25.3916C28.8943 25.4119 28.8415 25.4223 28.7881 25.4221H27.4816L27.4825 28.745C27.4825 29.3974 27.8777 29.8425 28.5848 29.8425L28.7036 29.8416C28.9474 29.8416 29.1457 30.0382 29.1457 30.282V30.9348C29.1457 30.9928 29.1343 31.0501 29.1121 31.1037C29.0899 31.1572 29.0573 31.2058 29.0163 31.2467C28.9752 31.2876 28.9265 31.32 28.8729 31.3421C28.8194 31.3641 28.7619 31.3754 28.704 31.3752H27.9165V31.3756ZM14.1187 23.7511C11.737 23.7511 10.4011 25.6152 10.4011 27.579C10.4011 29.6719 11.832 31.5151 14.1342 31.5151C15.71 31.5151 17.2634 30.6847 17.5569 29.3209C17.5965 29.137 17.4725 28.8958 17.2132 28.8949H16.0874C15.883 28.8949 15.7159 28.9927 15.6152 29.1405C15.2932 29.6129 14.821 29.8643 14.1231 29.8643C13.1369 29.8643 12.4532 29.0873 12.4017 28.2255H17.1904C17.6314 28.2255 17.8283 27.9863 17.8283 27.5786C17.8288 25.6636 16.6951 23.7511 14.1187 23.7511ZM14.1187 25.2883C14.9979 25.2883 15.7568 25.9139 15.8338 26.7604H12.4168C12.4935 25.9139 13.2395 25.2883 14.1187 25.2883ZM35.9389 23.7511C33.5573 23.7511 32.2214 25.6152 32.2214 27.579C32.2214 29.6719 33.6525 31.5151 35.9546 31.5151C37.5304 31.5151 39.0837 30.6847 39.3774 29.3209C39.4171 29.137 39.2931 28.8958 39.034 28.8949H37.908C37.7036 28.8949 37.5365 28.9927 37.4356 29.1405C37.1138 29.6129 36.6414 29.8643 35.9435 29.8643C34.9575 29.8643 34.274 29.0873 34.2221 28.2255H39.0112C39.452 28.2255 39.6491 27.9863 39.6491 27.5786C39.6491 25.6636 38.5154 23.7511 35.9389 23.7511ZM35.9389 25.2883C36.8185 25.2883 37.5774 25.9139 37.6543 26.7604H34.2369C34.3136 25.9139 35.0597 25.2883 35.9389 25.2883Z" fill="white"/>
<path fill-rule="evenodd" clip-rule="evenodd" d="M23.9038 21.3351H8.39276C8.30898 21.3351 8.22601 21.3516 8.14861 21.3837C8.07122 21.4158 8.00091 21.4628 7.94171 21.5221C7.88252 21.5814 7.83559 21.6518 7.80363 21.7292C7.77167 21.8067 7.75529 21.8897 7.75543 21.9735L7.80881 28.0655C7.80881 28.0655 4.46635 22.0284 4.29203 21.7203C4.1284 21.4305 3.7765 21.1636 3.28951 21.1636H2.01397C1.9301 21.1636 1.84704 21.1801 1.76956 21.2122C1.69207 21.2443 1.62167 21.2914 1.56239 21.3507C1.5031 21.41 1.45608 21.4805 1.42402 21.558C1.39196 21.6355 1.37549 21.7186 1.37555 21.8024L1.3762 30.7364C1.37615 30.8203 1.3926 30.9033 1.42463 30.9808C1.45666 31.0583 1.50364 31.1287 1.56288 31.188C1.62213 31.2473 1.69247 31.2944 1.76991 31.3265C1.84735 31.3587 1.93035 31.3752 2.01419 31.3753H2.83238C3.00183 31.3749 3.16419 31.3072 3.28375 31.1871C3.40331 31.067 3.47027 30.9044 3.46993 30.7349L3.41851 24.4723C3.41851 24.4723 6.79322 30.5698 6.93768 30.8099C7.13226 31.1345 7.46171 31.3755 7.93933 31.3755H9.11115C9.19498 31.3755 9.27798 31.3589 9.3554 31.3268C9.43282 31.2946 9.50316 31.2475 9.56238 31.1882C9.62161 31.1289 9.66856 31.0585 9.70057 30.981C9.73258 30.9035 9.74901 30.8205 9.74892 30.7367L9.74849 22.8492L23.9047 22.8496C23.962 22.8498 24.0187 22.8387 24.0716 22.8169C24.1246 22.7951 24.1727 22.7631 24.2132 22.7227C24.2538 22.6823 24.286 22.6343 24.308 22.5815C24.33 22.5286 24.3413 22.472 24.3414 22.4147V21.7704C24.341 21.6547 24.2948 21.5438 24.2127 21.4622C24.1307 21.3805 24.0196 21.3348 23.9038 21.3351Z" fill="white"/>
<path fill-rule="evenodd" clip-rule="evenodd" d="M21.3935 25.2138C22.0681 25.2138 22.5723 25.4585 22.754 25.881C22.8412 26.0841 23.0103 26.1231 23.2425 26.1231H24.1699C24.3231 26.1231 24.4993 25.9913 24.4993 25.7908C24.4993 24.7129 23.2138 23.7502 21.3922 23.7502C19.509 23.7502 18.272 24.6473 18.272 26.0769C18.272 27.1703 19.1362 27.8209 20.1984 28.0987C20.6825 28.2251 21.5092 28.4295 21.9117 28.5354C22.3457 28.6489 22.7338 28.7818 22.7338 29.1533C22.7338 29.7401 22.1154 29.9397 21.4399 29.9397C20.8 29.9397 20.1626 29.654 19.9798 29.1975C19.8742 28.9332 19.6887 28.8949 19.4076 28.8949H18.4644C18.2999 28.8949 18.1105 29.0361 18.1105 29.2507V29.3725C18.1105 30.416 19.5105 31.5089 21.4417 31.5089C22.8111 31.5089 24.719 30.9396 24.719 29.1032C24.719 28.0397 24.0073 27.3034 22.8495 27.009C22.3967 26.8942 21.3081 26.6175 21.0713 26.5563C20.6492 26.4469 20.2552 26.3094 20.2552 25.9477C20.2555 25.3997 20.7618 25.2138 21.3935 25.2138Z" fill="white"/>
<path fill-rule="evenodd" clip-rule="evenodd" d="M31.617 21.8147C31.6171 21.7385 31.6022 21.6631 31.5731 21.5927C31.544 21.5223 31.5013 21.4583 31.4475 21.4044C31.3937 21.3505 31.3298 21.3077 31.2594 21.2785C31.189 21.2493 31.1136 21.2343 31.0374 21.2343L30.1792 21.2338C30.1029 21.234 30.0273 21.2491 29.9569 21.2785C29.8865 21.3078 29.8225 21.3507 29.7687 21.4048C29.7149 21.4589 29.6722 21.523 29.6432 21.5936C29.6142 21.6641 29.5994 21.7397 29.5996 21.816L29.6 30.7943C29.5998 30.8705 29.6147 30.946 29.6437 31.0165C29.6728 31.0869 29.7155 31.151 29.7693 31.2049C29.8231 31.2589 29.8871 31.3017 29.9575 31.3309C30.0279 31.3601 30.1034 31.3752 30.1796 31.3752H31.0379C31.1141 31.375 31.1895 31.3598 31.2599 31.3305C31.3303 31.3011 31.3942 31.2582 31.4479 31.2042C31.5017 31.1502 31.5443 31.0861 31.5733 31.0156C31.6024 30.9451 31.6172 30.8696 31.617 30.7934V21.8147ZM32.7111 22.0535V22.4804C32.7112 22.5224 32.7196 22.5641 32.7359 22.6029C32.7521 22.6417 32.7758 22.6769 32.8056 22.7065C32.8355 22.7362 32.8709 22.7597 32.9098 22.7756C32.9487 22.7916 32.9904 22.7997 33.0324 22.7996H38.9552C39.2249 22.7996 39.4441 22.5817 39.4441 22.3115V21.5885C39.4441 21.3188 39.2223 21.0741 38.9539 21.1005C38.9539 21.1005 33.2292 21.6622 33.0444 21.6831C32.8311 21.7066 32.7111 21.8768 32.7111 22.0535ZM27.9166 31.3756C26.4432 31.3756 25.5158 30.2585 25.5158 29.0145L25.5145 25.4224H25.0927C25.0393 25.4224 24.9864 25.412 24.937 25.3916C24.8876 25.3712 24.8428 25.3413 24.805 25.3035C24.7672 25.2658 24.7372 25.221 24.7168 25.1716C24.6964 25.1223 24.6858 25.0694 24.6859 25.016V24.4146C24.6859 24.19 24.8689 24.0095 25.0931 24.0095L25.5145 24.01L25.5136 21.8012C25.5135 21.7269 25.528 21.6533 25.5564 21.5846C25.5847 21.5159 25.6263 21.4535 25.6788 21.4009C25.7313 21.3483 25.7937 21.3066 25.8623 21.2782C25.931 21.2497 26.0046 21.2351 26.0789 21.2351H26.916C27.0662 21.2356 27.21 21.2956 27.316 21.402C27.422 21.5084 27.4814 21.6526 27.4812 21.8027L27.4816 24.0098H28.7868C29.0119 24.0098 29.1949 24.1906 29.1949 24.4153V25.0166C29.1949 25.07 29.1844 25.1228 29.1639 25.1721C29.1434 25.2214 29.1134 25.2661 29.0756 25.3038C29.0379 25.3414 28.993 25.3713 28.9437 25.3916C28.8943 25.4119 28.8415 25.4223 28.7881 25.4221H27.4816L27.4825 28.745C27.4825 29.3974 27.8778 29.8425 28.5848 29.8425L28.7036 29.8416C28.9474 29.8416 29.1457 30.0382 29.1457 30.282V30.9348C29.1457 30.9928 29.1343 31.0501 29.1121 31.1037C29.0899 31.1572 29.0574 31.2058 29.0163 31.2467C28.9753 31.2876 28.9266 31.32 28.873 31.3421C28.8194 31.3641 28.762 31.3754 28.704 31.3752H27.9166V31.3756ZM17.8288 27.5786C17.8288 25.6636 16.6951 23.7511 14.119 23.7511C11.7372 23.7511 10.4013 25.6152 10.4013 27.579C10.4013 29.6719 11.8322 31.5151 14.1345 31.5151C15.7102 31.5151 17.2636 30.6847 17.5571 29.3209C17.5968 29.137 17.4728 28.8958 17.2135 28.8949H16.0876C15.8833 28.8949 15.7161 28.9927 15.6155 29.1405C15.2934 29.6129 14.8212 29.8643 14.1233 29.8643C13.1372 29.8643 12.4534 29.0873 12.402 28.2255H17.1906C17.6316 28.2255 17.8288 27.9863 17.8288 27.5786ZM12.4168 26.7602C12.4937 25.9137 13.2396 25.2881 14.119 25.2881C14.9982 25.2881 15.7571 25.9137 15.834 26.7602H12.4168ZM39.6492 27.5786C39.6492 25.6636 38.5155 23.7511 35.9391 23.7511C33.5576 23.7511 32.2217 25.6152 32.2217 27.579C32.2217 29.6719 33.6528 31.5151 35.9548 31.5151C37.5306 31.5151 39.084 30.6847 39.3777 29.3209C39.4173 29.137 39.2934 28.8958 39.0343 28.8949H37.9082C37.7038 28.8949 37.5367 28.9927 37.4358 29.1405C37.114 29.6129 36.6416 29.8643 35.9437 29.8643C34.9577 29.8643 34.2742 29.0873 34.2224 28.2255H39.0114C39.452 28.2255 39.6492 27.9863 39.6492 27.5786ZM34.2372 26.7602C34.3139 25.9137 35.0597 25.2881 35.9391 25.2881C36.8188 25.2881 37.5777 25.9137 37.6546 26.7602H34.2372Z" fill="#2463A9"/>
<path fill-rule="evenodd" clip-rule="evenodd" d="M23.9038 21.3351H8.39276C8.30898 21.3351 8.22601 21.3516 8.14861 21.3837C8.07122 21.4158 8.00091 21.4628 7.94171 21.5221C7.88252 21.5814 7.83559 21.6518 7.80363 21.7292C7.77167 21.8067 7.75529 21.8897 7.75543 21.9735L7.80881 28.0655C7.80881 28.0655 4.46635 22.0284 4.29203 21.7203C4.1284 21.4305 3.7765 21.1636 3.28951 21.1636H2.01397C1.9301 21.1636 1.84704 21.1801 1.76956 21.2122C1.69207 21.2443 1.62167 21.2914 1.56239 21.3507C1.5031 21.41 1.45608 21.4805 1.42402 21.558C1.39196 21.6355 1.37549 21.7186 1.37555 21.8024L1.3762 30.7364C1.37615 30.8203 1.3926 30.9033 1.42463 30.9808C1.45666 31.0583 1.50364 31.1287 1.56288 31.188C1.62213 31.2473 1.69247 31.2944 1.76991 31.3265C1.84735 31.3587 1.93035 31.3752 2.01419 31.3753H2.83238C3.00183 31.3749 3.16419 31.3072 3.28375 31.1871C3.40331 31.067 3.47027 30.9044 3.46993 30.7349L3.41851 24.4723C3.41851 24.4723 6.79322 30.5698 6.93768 30.8099C7.13226 31.1345 7.46171 31.3755 7.93933 31.3755H9.11115C9.19498 31.3755 9.27798 31.3589 9.3554 31.3268C9.43282 31.2946 9.50316 31.2475 9.56238 31.1882C9.62161 31.1289 9.66856 31.0585 9.70057 30.981C9.73258 30.9035 9.74901 30.8205 9.74892 30.7367L9.74849 22.8492L23.9047 22.8496C23.962 22.8498 24.0187 22.8387 24.0716 22.8169C24.1246 22.7951 24.1727 22.7631 24.2132 22.7227C24.2538 22.6823 24.286 22.6343 24.308 22.5815C24.33 22.5286 24.3413 22.472 24.3414 22.4147V21.7704C24.341 21.6547 24.2948 21.5438 24.2127 21.4622C24.1307 21.3805 24.0196 21.3348 23.9038 21.3351Z" fill="#2463A9"/>
<path fill-rule="evenodd" clip-rule="evenodd" d="M21.3935 25.2138C22.0681 25.2138 22.5723 25.4585 22.754 25.881C22.8412 26.0841 23.0103 26.1231 23.2425 26.1231H24.1699C24.3231 26.1231 24.4993 25.9913 24.4993 25.7908C24.4993 24.7129 23.2138 23.7502 21.3922 23.7502C19.509 23.7502 18.272 24.6473 18.272 26.0769C18.272 27.1703 19.1362 27.8209 20.1984 28.0987C20.6825 28.2251 21.5092 28.4295 21.9117 28.5354C22.3457 28.6489 22.7338 28.7818 22.7338 29.1533C22.7338 29.7401 22.1154 29.9397 21.4399 29.9397C20.8 29.9397 20.1626 29.654 19.9798 29.1975C19.8742 28.9332 19.6887 28.8949 19.4076 28.8949H18.4644C18.2999 28.8949 18.1105 29.0361 18.1105 29.2507V29.3725C18.1105 30.416 19.5105 31.5089 21.4417 31.5089C22.8111 31.5089 24.719 30.9396 24.719 29.1032C24.719 28.0397 24.0073 27.3034 22.8495 27.009C22.3967 26.8942 21.3081 26.6175 21.0713 26.5563C20.6492 26.4469 20.2552 26.3094 20.2552 25.9477C20.2555 25.3997 20.7618 25.2138 21.3935 25.2138ZM40.3144 30.9982H40.1041V30.0151H40.4715C40.7251 30.0151 40.875 30.0874 40.875 30.3121C40.875 30.4929 40.7687 30.5585 40.6384 30.5683L40.8894 30.9982H40.6404L40.4135 30.5851H40.3144V30.9982ZM40.5003 30.4186C40.5948 30.4186 40.6502 30.399 40.6502 30.2901C40.6502 30.1887 40.5412 30.1815 40.4621 30.1815H40.3144V30.4186H40.5003ZM40.4663 31.4207C39.981 31.4207 39.5483 31.0849 39.5483 30.5075C39.5483 29.9305 39.981 29.5948 40.4663 29.5948C40.9498 29.5948 41.3825 29.9305 41.3825 30.5075C41.3825 31.0849 40.9498 31.4207 40.4663 31.4207ZM40.4663 29.807C40.1041 29.807 39.8117 30.0874 39.8117 30.5075C39.8117 30.928 40.1041 31.2111 40.4663 31.2085V31.2111C40.8195 31.2111 41.1186 30.928 41.1186 30.5075C41.1186 30.0874 40.8195 29.807 40.4663 29.807Z" fill="#2463A9"/>
</svg>
