<svg width="67" height="18" viewBox="0 0 67 18" fill="none" xmlns="http://www.w3.org/2000/svg">
<g clip-path="url(#clip0_14_295)">
<path d="M63.4158 8.56879L67 17.9824C65.9437 17.8327 64.888 17.6452 63.813 17.4764L61.7939 12.275L59.7194 17.047C58.7011 16.8781 57.701 16.8219 56.6826 16.6907L60.323 8.45688L57.0212 0.0175781H60.0773L61.9255 4.73275L63.9065 0.0175781H66.9994L63.4158 8.56879ZM54.6081 0.0175781H51.8351V16.3356C52.7406 16.3919 53.6833 16.429 54.6081 16.541V0.0175781ZM49.4394 16.1482C46.9122 15.9799 44.3842 15.8308 41.8002 15.7739V0.0176504H44.6293V13.1169C46.2518 13.154 47.8736 13.2846 49.4394 13.3594V16.1482ZM38.7816 6.39925V9.20594H34.9149V15.587H32.1239V0.0175781H40.0461V2.82427H34.9155V6.39932H38.7821L38.7816 6.39925ZM27.3698 2.82427V15.7368C26.4264 15.7368 25.4649 15.7368 24.5402 15.7739V2.82427H21.6164V0.0175781H30.3117V2.82427H27.3698ZM18.5609 9.35509C17.3163 9.35509 15.8447 9.35509 14.7884 9.41199V13.5846C16.4483 13.472 18.1082 13.3414 19.7867 13.2852V15.9799L11.9593 16.5979V0.0175781H19.7862V2.82427H14.7883V6.60465C15.8826 6.60465 17.5613 6.5484 18.5608 6.5484V9.35567L18.5609 9.35509ZM2.88527 7.78315V17.5889C1.86759 17.7015 0.961561 17.8326 0 17.9824V0.0175781H2.69755L6.37538 10.2169V0.0175781H9.20504V16.8219C8.20544 16.9907 7.1866 17.047 6.11158 17.1961L2.88527 7.78315Z" fill="#E50914"/>
</g>
<defs>
<clipPath id="clip0_14_295">
<rect width="67" height="18" fill="white"/>
</clipPath>
</defs>
</svg>
