<svg width="28" height="28" viewBox="0 0 28 28" fill="none" xmlns="http://www.w3.org/2000/svg">
<path d="M19.6467 13.5684C20.114 13.5741 20.5777 13.4863 21.0105 13.3099C21.4433 13.1336 21.8364 12.8724 22.1667 12.5417L25.4683 9.24002C25.6856 9.02143 25.8076 8.72574 25.8076 8.41752C25.8076 8.1093 25.6856 7.81361 25.4683 7.59502C25.3599 7.48567 25.2308 7.39888 25.0887 7.33965C24.9465 7.28042 24.794 7.24992 24.64 7.24992C24.486 7.24992 24.3335 7.28042 24.1913 7.33965C24.0491 7.39888 23.9201 7.48567 23.8116 7.59502L20.475 10.885C20.3665 10.9944 20.2375 11.0812 20.0953 11.1404C19.9532 11.1996 19.8007 11.2301 19.6467 11.2301C19.4926 11.2301 19.3401 11.1996 19.198 11.1404C19.0558 11.0812 18.9268 10.9944 18.8183 10.885L22.9483 6.76669C23.0571 6.65791 23.1434 6.52877 23.2023 6.38664C23.2611 6.24452 23.2914 6.09219 23.2914 5.93835C23.2914 5.78452 23.2611 5.63219 23.2023 5.49006C23.1434 5.34794 23.0571 5.2188 22.9483 5.11002C22.8395 5.00124 22.7104 4.91495 22.5683 4.85608C22.4261 4.79721 22.2738 4.76691 22.12 4.76691C21.9661 4.76691 21.8138 4.79721 21.6717 4.85608C21.5296 4.91495 21.4004 5.00124 21.2917 5.11002L17.1733 9.24002C16.956 9.02143 16.8341 8.72574 16.8341 8.41752C16.8341 8.1093 16.956 7.81361 17.1733 7.59502L20.475 4.29335C20.5838 4.18457 20.6701 4.05544 20.7289 3.91331C20.7878 3.77118 20.8181 3.61886 20.8181 3.46502C20.8181 3.31118 20.7878 3.15885 20.7289 3.01673C20.6701 2.8746 20.5838 2.74546 20.475 2.63669C20.3662 2.52791 20.2371 2.44162 20.0949 2.38275C19.9528 2.32388 19.8005 2.29358 19.6467 2.29358C19.4928 2.29358 19.3405 2.32388 19.1984 2.38275C19.0562 2.44162 18.9271 2.52791 18.8183 2.63669L15.5167 5.93835C14.8612 6.5946 14.4931 7.48418 14.4931 8.41169C14.4931 9.33919 14.8612 10.2288 15.5167 10.885L14 12.39L4.35165 2.70669L4.23499 2.63669C4.17535 2.58465 4.10855 2.54144 4.03665 2.50835L3.82665 2.42669L3.68665 2.33335H3.60499H3.37165C3.30209 2.32223 3.23121 2.32223 3.16165 2.33335C3.09102 2.35906 3.02428 2.39439 2.96332 2.43835L2.77665 2.55502H2.69499L2.62499 2.67169C2.57561 2.73328 2.53261 2.79974 2.49665 2.87002C2.46248 2.94116 2.43514 3.01538 2.41499 3.09169C2.41499 3.09169 2.41499 3.17335 2.41499 3.22002C2.13188 5.19333 2.31238 7.20547 2.94218 9.09689C3.57197 10.9883 4.63375 12.707 6.04332 14.1167L9.12332 17.185L2.81165 23.485C2.7023 23.5935 2.61551 23.7225 2.55628 23.8647C2.49705 24.0068 2.46655 24.1593 2.46655 24.3134C2.46655 24.4674 2.49705 24.6199 2.55628 24.762C2.61551 24.9042 2.7023 25.0332 2.81165 25.1417C2.92067 25.2498 3.04995 25.3354 3.19209 25.3934C3.33424 25.4515 3.48644 25.4809 3.63999 25.48C3.79353 25.4809 3.94573 25.4515 4.08788 25.3934C4.23002 25.3354 4.35931 25.2498 4.46832 25.1417L11.55 18.165L14.8517 14.8634L17.185 12.53C17.836 13.188 18.7211 13.5614 19.6467 13.5684ZM10.7217 15.6917L7.65332 12.6117C5.97152 10.9069 4.91847 8.68149 4.66665 6.30002L12.3783 14L10.7217 15.6917ZM18.0017 16.3567C17.782 16.1355 17.4834 16.0105 17.1716 16.0095C16.8598 16.0084 16.5604 16.1312 16.3392 16.3509C16.1179 16.5705 15.993 16.8691 15.9919 17.1809C15.9908 17.4927 16.1136 17.7921 16.3333 18.0134L23.6833 25.3634C23.9062 25.5661 24.1988 25.6748 24.5 25.6667C24.6535 25.6676 24.8057 25.6381 24.9479 25.5801C25.09 25.522 25.2193 25.4365 25.3283 25.3284C25.4377 25.2199 25.5245 25.0909 25.5837 24.9487C25.6429 24.8065 25.6734 24.654 25.6734 24.5C25.6734 24.346 25.6429 24.1935 25.5837 24.0513C25.5245 23.9092 25.4377 23.7801 25.3283 23.6717L18.0017 16.3567Z" fill="#6563FF"/>
</svg>
