<svg width="28" height="28" viewBox="0 0 28 28" fill="none" xmlns="http://www.w3.org/2000/svg">
<path d="M9.91665 22.1667C9.57053 22.1667 9.23218 22.2693 8.9444 22.4616C8.65661 22.6539 8.43231 22.9272 8.29986 23.247C8.1674 23.5667 8.13275 23.9186 8.20027 24.2581C8.2678 24.5975 8.43447 24.9094 8.67921 25.1541C8.92395 25.3988 9.23577 25.5655 9.57524 25.633C9.9147 25.7006 10.2666 25.6659 10.5863 25.5335C10.9061 25.401 11.1794 25.1767 11.3717 24.8889C11.564 24.6011 11.6666 24.2628 11.6666 23.9167C11.6666 23.4525 11.4823 23.0074 11.1541 22.6792C10.8259 22.351 10.3808 22.1667 9.91665 22.1667ZM22.1666 18.6667H8.16665C7.85723 18.6667 7.56048 18.5437 7.34169 18.325C7.1229 18.1062 6.99998 17.8094 6.99998 17.5C6.99998 17.1906 7.1229 16.8938 7.34169 16.675C7.56048 16.4562 7.85723 16.3333 8.16665 16.3333H18.0731C18.8331 16.3309 19.5718 16.0822 20.1785 15.6246C20.7853 15.1669 21.2274 14.525 21.4386 13.7949L23.2883 7.32072C23.3379 7.14708 23.3466 6.9643 23.3136 6.78676C23.2805 6.60922 23.2068 6.44177 23.098 6.29759C22.9893 6.1534 22.8486 6.03643 22.687 5.95587C22.5253 5.87531 22.3472 5.83336 22.1666 5.83333H7.86223C7.62071 5.15359 7.1755 4.56483 6.58724 4.14728C5.99899 3.72974 5.2963 3.50371 4.57493 3.5H3.49998C3.19056 3.5 2.89381 3.62292 2.67502 3.84171C2.45623 4.0605 2.33331 4.35725 2.33331 4.66667C2.33331 4.97609 2.45623 5.27283 2.67502 5.49162C2.89381 5.71042 3.19056 5.83333 3.49998 5.83333H4.57493C4.8282 5.83422 5.07436 5.91712 5.27656 6.06962C5.47877 6.22212 5.62613 6.43602 5.69659 6.67928L5.87803 7.31481L5.87831 7.32072L7.79238 14.0199C6.9017 14.1158 6.08166 14.5494 5.50112 15.2317C4.92058 15.9139 4.62373 16.7928 4.67169 17.6873C4.71966 18.5819 5.10879 19.424 5.75895 20.0402C6.40912 20.6565 7.27083 21 8.16665 21H22.1666C22.4761 21 22.7728 20.8771 22.9916 20.6583C23.2104 20.4395 23.3333 20.1428 23.3333 19.8333C23.3333 19.5239 23.2104 19.2272 22.9916 19.0084C22.7728 18.7896 22.4761 18.6667 22.1666 18.6667ZM20.62 8.16667L19.1953 13.1535C19.1249 13.3969 18.9775 13.611 18.7752 13.7637C18.5728 13.9163 18.3265 13.9992 18.0731 14H10.2134L9.916 12.9591L8.54747 8.16667H20.62ZM19.25 22.1667C18.9039 22.1667 18.5655 22.2693 18.2777 22.4616C17.9899 22.6539 17.7656 22.9272 17.6332 23.247C17.5007 23.5667 17.4661 23.9186 17.5336 24.2581C17.6011 24.5975 17.7678 24.9094 18.0125 25.1541C18.2573 25.3988 18.5691 25.5655 18.9086 25.633C19.248 25.7006 19.5999 25.6659 19.9197 25.5335C20.2394 25.401 20.5128 25.1767 20.705 24.8889C20.8973 24.6011 21 24.2628 21 23.9167C21 23.4525 20.8156 23.0074 20.4874 22.6792C20.1592 22.351 19.7141 22.1667 19.25 22.1667Z" fill="#6563FF"/>
</svg>
