<svg width="54" height="54" viewBox="0 0 54 54" fill="none" xmlns="http://www.w3.org/2000/svg">
<path fill-rule="evenodd" clip-rule="evenodd" d="M0 0.00012207H54V54.0001H0V0.00012207Z" fill="white"/>
<path fill-rule="evenodd" clip-rule="evenodd" d="M52.4005 29.8214C52.2944 29.8194 52.1889 29.8386 52.0902 29.8779C51.9915 29.9171 51.9017 29.9757 51.8259 30.0501C51.7501 30.1244 51.6899 30.2132 51.6488 30.3111C51.6077 30.409 51.5865 30.5141 51.5865 30.6203C51.5865 30.7265 51.6077 30.8316 51.6488 30.9295C51.6899 31.0275 51.7501 31.1162 51.8259 31.1906C51.9017 31.265 51.9915 31.3235 52.0902 31.3627C52.1889 31.402 52.2944 31.4212 52.4005 31.4192C52.5055 31.4191 52.6094 31.3983 52.7062 31.358C52.8031 31.3176 52.8911 31.2586 52.9651 31.1842C53.0391 31.1098 53.0977 31.0216 53.1376 30.9245C53.1774 30.8274 53.1977 30.7234 53.1973 30.6185C53.1974 30.5138 53.1768 30.4102 53.1368 30.3135C53.0967 30.2168 53.038 30.1289 52.9641 30.0549C52.8901 29.9809 52.8022 29.9222 52.7055 29.8821C52.6088 29.842 52.5052 29.8214 52.4005 29.8214ZM52.4005 31.3231C52.3081 31.3232 52.2165 31.3051 52.1311 31.2697C52.0456 31.2343 51.968 31.1823 51.9027 31.1169C51.8374 31.0514 51.7857 30.9737 51.7506 30.8881C51.7154 30.8026 51.6975 30.711 51.6979 30.6185C51.6979 30.5263 51.7161 30.4351 51.7515 30.3499C51.7868 30.2648 51.8386 30.1875 51.9039 30.1224C51.9692 30.0573 52.0466 30.0058 52.1318 29.9707C52.2171 29.9355 52.3084 29.9176 52.4005 29.9178C52.4925 29.9178 52.5836 29.9359 52.6686 29.9711C52.7536 30.0064 52.8309 30.058 52.8959 30.123C52.9609 30.1881 53.0125 30.2654 53.0477 30.3504C53.0829 30.4354 53.101 30.5265 53.1009 30.6185C53.1014 30.7108 53.0836 30.8023 53.0486 30.8877C53.0136 30.9731 52.9621 31.0508 52.897 31.1162C52.832 31.1817 52.7546 31.2337 52.6694 31.2692C52.5842 31.3047 52.4928 31.323 52.4005 31.3231Z" fill="black"/>
<path fill-rule="evenodd" clip-rule="evenodd" d="M52.8104 30.4092C52.8104 30.3339 52.7771 30.2546 52.7104 30.2167C52.6432 30.177 52.5681 30.173 52.4927 30.173H52.1036V31.0659H52.2126V30.6541H52.4134L52.6684 31.0659H52.7981L52.5283 30.6541C52.6874 30.6496 52.8104 30.5849 52.8104 30.4092ZM52.3798 30.5681H52.2123V30.2523H52.4672C52.5782 30.2523 52.6998 30.2691 52.6998 30.4073C52.7 30.5891 52.505 30.5681 52.3798 30.5681ZM47.7176 26.0924L49.351 24.3484C49.4456 24.2204 49.4927 24.1307 49.4927 24.054C49.4927 23.9259 49.3826 23.8747 49.0363 23.8747H48.6242V22.7736H53.085V23.8747H52.4989C51.822 23.8747 51.6962 23.9769 50.7518 25.1676L48.1678 27.9581V29.6609C48.1678 30.0966 48.3878 30.2498 49.0176 30.2498H49.9931V31.3122H43.7451V30.2498H44.7207C45.3499 30.2498 45.5704 30.0966 45.5704 29.6609V27.9581L42.527 24.5913C42.0241 24.0027 42.0936 23.8747 40.6933 23.8747V22.7736H46.3437V23.8747H45.9414C45.532 23.8747 45.3586 23.9514 45.3586 24.105C45.3586 24.2333 45.4844 24.3355 45.5631 24.4378L47.1029 26.116C47.2859 26.3062 47.5092 26.3309 47.7176 26.0924ZM9.80659 22.7733H11.1696V25.8456H9.91081C9.79931 25.2315 9.41492 24.9925 9.06444 24.6703C8.43211 24.0893 7.06266 23.6054 5.91091 23.6054C4.42436 23.6054 3.16978 24.0666 3.16978 24.7446C3.16978 26.6267 11.6714 25.129 11.6714 28.6876C11.6714 30.5437 9.8503 31.5806 6.57994 31.5806C5.4478 31.5806 3.73459 31.2293 2.72376 30.6925C2.40689 30.5095 2.27241 30.8656 2.21302 31.3119H0.815558V28.1371H2.07966C2.35842 28.9437 2.74253 29.1098 3.09582 29.43C3.70882 29.9935 5.16791 30.4033 6.50598 30.3902C8.52344 30.3703 9.21713 29.9293 9.21713 29.2891C9.21713 28.6492 8.53101 28.4954 6.32023 28.15L4.44313 27.8426C2.3248 27.5224 0.782499 27.0489 0.782499 25.3593C0.782499 23.6054 2.73356 22.5044 5.81845 22.5044C7.11842 22.5044 8.20601 22.6781 9.24991 23.2681C9.53904 23.4561 9.81024 23.4785 9.80659 22.7733ZM36.4065 27.9172L36.4334 24.5025C36.4334 24.0545 36.2003 23.901 35.5344 23.901H34.7519V22.8386H39.7304V23.901H39.0815C38.415 23.901 38.1819 24.0548 38.1819 24.5025V31.3769L36.2334 31.3615L29.923 25.3859V29.7256C29.923 30.161 30.1561 30.3271 30.822 30.3271H31.6883V31.3769H26.5178V30.3271H27.3746C28.0405 30.3271 28.2736 30.1607 28.2736 29.7256V24.5025C28.2736 24.0545 28.0405 23.901 27.3746 23.901H26.5178V22.8386H30.9881L36.4065 27.9172ZM19.7303 22.4399C15.7626 22.4399 13.279 24.194 13.279 27.01C13.279 29.7755 15.7281 31.5161 19.6093 31.5161C23.7316 31.5161 26.1295 29.801 26.1295 26.8693C26.1298 24.2324 23.5422 22.4399 19.7303 22.4399ZM19.6401 30.4028C17.4439 30.4028 16.1815 29.1353 16.1815 26.9461C16.1815 24.8085 17.4988 23.541 19.7499 23.541C21.9094 23.541 23.1718 24.8342 23.1718 27.036C23.1718 29.1866 21.8909 30.4028 19.6401 30.4028Z" fill="black"/>
</svg>
