<svg width="30" height="31" viewBox="0 0 30 31" fill="none" xmlns="http://www.w3.org/2000/svg">
<g clip-path="url(#clip0_14_267)">
<path d="M0.38149 15.3815C0.38149 7.13437 6.95389 0.44812 15.0624 0.44812C23.1701 0.44812 29.7428 7.13437 29.7428 15.3815C29.7428 23.6293 23.1701 30.3148 15.0624 30.3148C6.95389 30.3148 0.38149 23.629 0.38149 15.3815Z" fill="#397657"/>
<path d="M0.814284 15.3815C0.814284 7.37767 7.193 0.888916 15.0621 0.888916C22.9308 0.888916 29.31 7.37767 29.31 15.3815C29.31 23.3856 22.9308 29.8746 15.0621 29.8746C7.193 29.8744 0.814284 23.3856 0.814284 15.3815Z" fill="white"/>
<path d="M1.27838 15.3815C1.27838 7.63833 7.44952 1.36121 15.0624 1.36121C22.6747 1.36121 28.8459 7.63833 28.8459 15.3815C28.8459 23.1252 22.6745 29.4023 15.0624 29.4023C7.44929 29.4023 1.27838 23.1252 1.27838 15.3815Z" fill="#397657"/>
<path d="M6.54204 15.3223C6.54204 10.5534 10.3423 6.68767 15.0301 6.68767C19.7179 6.68767 23.518 10.5534 23.518 15.3223C23.518 20.0906 19.7179 23.9561 15.0301 23.9561C10.3423 23.9561 6.54204 20.0906 6.54204 15.3223ZM16.3723 2.59572C16.6048 2.80782 16.6707 3.08696 16.6587 3.39649C16.593 3.6153 16.4739 3.8274 16.2826 3.97941C16.5156 4.15513 16.7484 4.33755 16.7839 4.65283C16.8498 4.96236 16.7599 5.24126 16.5869 5.47203C16.2233 5.89049 15.6446 5.78157 15.1193 5.79928L13.7324 5.83639L13.723 5.70807L13.5804 2.50451L13.5745 2.43461C14.4872 2.42863 15.5608 2.18851 16.3723 2.59572ZM18.9559 3.04746C18.7109 3.76659 18.3892 4.47687 18.2155 5.23527C18.2057 5.33328 18.2311 5.43158 18.2871 5.51196C18.3431 5.59233 18.4259 5.64934 18.52 5.6724C18.6666 5.75451 18.8751 5.76984 18.9853 5.6724C19.4569 4.99899 19.6807 4.16135 19.9763 3.40559C20.3519 3.53941 20.6447 3.73045 21.0088 3.87001C20.6204 4.70765 20.3818 5.69395 19.8448 6.38244C19.4571 6.72837 18.8427 6.64314 18.3776 6.52775C17.8465 6.33385 17.2678 5.98816 17.1068 5.38106C16.9818 4.96547 17.5485 3.53917 17.8585 2.68693L18.9559 3.04746Z" fill="white"/>
<path d="M10.3586 7.03837L9.57089 7.56575C9.27695 7.40823 9.10539 7.30194 8.89076 7.20187L8.01881 7.94854C8.10848 8.16735 8.22285 8.43403 8.31817 8.67677L7.53942 9.56229L7.47682 9.42272L6.09842 6.09133L7.35727 4.98964L7.4587 5.05356C8.44643 5.66688 9.46146 6.39009 10.4619 6.96918L10.3586 7.03837ZM10.5553 6.91628C10.1418 5.89048 9.63538 4.69231 9.26071 3.73019C10.2096 3.34166 11.5819 2.386 12.4287 3.27535C12.6433 3.51809 12.6732 3.85779 12.6791 4.16733C12.6259 4.36722 12.5774 4.56807 12.4465 4.73181C12.7297 5.08636 13.2554 5.48878 13.619 5.84068L13.5743 5.856L12.5004 6.09707C12.1185 5.78467 11.9022 5.56418 11.5699 5.33245C11.4266 5.35017 11.328 5.43563 11.1933 5.4962L11.5633 6.35825L10.5553 6.91628Z" fill="white"/>
<path d="M15.4417 3.15995C15.525 3.25044 15.5076 3.43908 15.4592 3.54226C15.3045 3.72468 15.0181 3.71797 14.7795 3.68757C14.7969 3.48145 14.7221 3.28108 14.7371 3.06898C14.94 3.09914 15.2925 2.99572 15.4417 3.15995ZM11.5042 3.99711C11.5633 4.14888 11.5668 4.39593 11.4397 4.48595L10.8493 4.74066C10.7019 4.46512 10.6393 4.27624 10.5379 4.05217C10.8121 3.94899 11.283 3.53029 11.5042 3.99711ZM15.6385 4.5434C15.6858 4.75622 15.5909 4.97455 15.3878 5.01716C15.197 5.04708 15.0541 5.02913 14.851 5.03511C14.8211 4.81631 14.8037 4.52521 14.8211 4.34303C15.0953 4.37942 15.5076 4.22788 15.6385 4.5434Z" fill="#397657"/>
<path d="M23.6921 5.72727C23.8952 5.98198 24.0329 6.2975 24.1221 6.61901C23.8715 6.75594 23.6806 6.91083 23.4417 7.01975C23.3827 6.64343 23.1796 6.26111 22.8157 6.07319C22.6427 5.96977 22.3857 5.95158 22.1892 6.01837C21.8847 6.13352 21.6225 6.40068 21.5091 6.71022C21.4077 7.00754 21.5209 7.29864 21.6884 7.52918C21.9207 7.79634 22.2316 7.93639 22.5825 7.94836C22.4248 8.21217 22.3387 8.37879 22.1892 8.58562C21.6042 8.5004 21.0556 8.17267 20.7216 7.62039C20.4352 7.15333 20.4176 6.43731 20.6682 5.94559C20.9304 5.40528 21.4498 5.05936 22.0099 4.98036C22.6844 4.95618 23.2927 5.22933 23.6921 5.72727Z" fill="white"/>
<path d="M8.19273 6.74662C8.02412 6.90475 7.84482 7.05065 7.65615 7.18328C7.51283 6.83735 7.37539 6.52782 7.22641 6.14551C7.56907 6.33104 7.87007 6.54601 8.19273 6.74662Z" fill="#397657"/>
<path d="M25.4826 7.87534C25.2084 8.15447 24.8446 8.39147 24.5516 8.6584C25.0173 8.76134 25.5419 8.74314 26.0194 8.82214C26.2343 9.13814 26.3475 9.44145 26.5565 9.82352L24.8025 9.6964C24.4146 10.3152 24.0628 10.9463 23.7284 11.5895C23.5199 11.28 23.3591 10.88 23.1558 10.534C23.3829 10.0665 23.6778 9.57192 23.9051 9.10439C23.5144 9.35048 23.1713 9.66887 22.7736 9.92359L22.1539 9.07685C22.9889 8.34862 23.8898 7.69939 24.7669 7.03842L24.838 7.01233L25.4826 7.87534ZM5.78848 7.65103C5.63009 7.98474 5.42134 8.21217 5.27566 8.5308L7.31585 9.89606C7.20829 10.2054 6.97578 10.5094 6.77856 10.8062L4.68472 9.47712C4.49692 9.72896 4.3623 9.98703 4.17426 10.3088C3.89985 10.124 3.70593 10.0023 3.48542 9.84196C4.00482 8.96123 4.49692 8.13628 5.0695 7.22252L5.78848 7.65103Z" fill="white"/>
<path d="M11.5285 15.7679C11.5321 15.9118 11.5177 16.0556 11.4856 16.1957C11.1696 16.8452 10.6568 17.4152 10.5735 18.1624C10.2096 18.3984 9.91073 18.8113 9.39203 18.672C9.37391 18.8113 9.4158 19.0232 9.46334 19.1812C9.05196 19.1635 8.7712 19.4725 8.42501 19.6183C8.24027 19.558 8.19249 19.3148 8.12119 19.1451C8.52644 19.0057 8.81874 18.5928 9.28425 18.5995C9.33814 18.447 9.25412 18.3077 9.23035 18.1624C8.65141 17.9009 7.73287 19.4546 7.65568 18.1075C8.23415 18.0711 8.60411 17.5248 9.17717 17.4703L9.19458 17.0331C8.54433 16.9663 8.1266 17.6462 7.47658 17.5792L7.33302 16.997C8.08471 17.0451 8.53256 16.3597 9.24847 16.3229C9.34355 16.1957 9.35556 16.0073 9.37391 15.8314C8.59234 15.728 8.05552 16.6084 7.22618 16.341C7.22618 16.341 7.19794 15.9745 7.18241 15.7677H11.5285" fill="black"/>
<path d="M12.4454 15.7678C12.4717 16.091 12.3941 16.4135 12.0947 16.7422C11.665 17.2573 11.2298 17.9068 11.54 18.5994C11.8683 19.3633 12.9003 19.9582 12.4527 20.9109C12.2084 21.5118 11.6233 21.9671 11.6473 22.6769C11.4925 22.6102 11.3317 22.5431 11.2002 22.4222C11.2002 21.518 12.4644 20.9536 11.8619 20.0008C11.8088 20.1887 11.7968 20.4436 11.7549 20.6562C11.5456 21.2085 11.0985 21.6511 10.9312 22.2226C10.6513 22.1127 10.3586 21.8822 10.1258 21.6394L10.4485 21.4388C10.4127 21.3172 10.3169 21.2143 10.2334 21.1111C10.0242 21.0812 9.88719 21.2205 9.71445 21.2753C9.56525 21.1415 9.42169 21.0201 9.30284 20.8564C9.40992 20.5463 10.2454 20.802 9.82153 20.2921C9.53536 20.1102 9.24918 20.3711 8.99854 20.4927L8.65847 20.0556C8.95077 19.8737 9.24283 19.6185 9.60643 19.6915C9.6961 19.8557 9.70245 20.0977 9.87519 20.1834C10.4897 20.1712 10.9253 19.6977 11.3964 19.3274C11.0679 18.8304 10.8001 18.144 11.0919 17.5432C11.3256 16.9408 11.9351 16.4341 11.9627 15.7683H12.4454" fill="black"/>
<path d="M13.3197 15.7678C13.3503 16.0455 13.3053 16.3304 13.1147 16.6323C12.7273 17.1671 12.2201 17.7306 12.4524 18.4347C12.6732 19.1449 13.5444 19.5756 13.4908 20.4013C13.4849 21.378 12.3689 21.9853 12.6852 23.0777L12.1305 22.8953C11.91 21.9245 12.924 21.4271 12.9358 20.5289C13.0791 19.4966 11.7838 19.1141 11.8615 18.1074C11.8561 17.3425 12.5181 16.8571 12.8104 16.2138C12.8573 16.0702 12.8777 15.919 12.8706 15.7678H13.3197Z" fill="black"/>
<path d="M16.3866 15.7679C16.3495 16.0214 16.3947 16.2804 16.5156 16.5053C16.9032 17.1298 17.5836 17.792 17.1593 18.5995C16.7123 19.2662 15.9666 19.9161 16.2645 20.7835C16.5928 21.5423 17.2788 22.2644 16.9086 23.2054L16.3542 23.3325C16.7954 22.4156 16.1336 21.5062 15.746 20.7109C15.2744 19.57 16.7599 19.023 16.7837 17.9799C16.778 17.3068 16.0739 16.9242 15.9251 16.3051C15.6206 16.0437 15.3043 16.4086 14.9402 16.341C14.6717 16.3961 14.2601 15.9647 14.0993 16.4323C13.9082 17.1176 13.0368 17.6218 13.4192 18.4348C13.7833 19.1573 14.6597 19.6851 14.3672 20.6202C14.105 21.4935 13.2399 22.3254 13.7767 23.3325C13.5559 23.26 13.1441 23.3993 13.1502 23.0412C12.8101 21.8212 14.2601 21.1112 13.8122 19.8917C13.6037 19.1451 12.6548 18.7321 12.8638 17.8339C13.0182 17.0947 13.8327 16.5776 13.7183 15.7677H16.3866" fill="black"/>
<path d="M17.2492 15.7678C17.2376 15.9754 17.2788 16.1817 17.4104 16.3776C17.8222 17.0574 18.5381 17.8041 18.1265 18.6901C17.6612 19.3999 16.8498 20.1221 17.3028 21.057C17.6311 21.6152 18.1385 22.173 18.0016 22.8594L17.4643 23.0413C17.8222 21.761 16.068 21.0079 16.8022 19.7276C17.2558 19.0418 18.0667 18.3983 17.6078 17.4881C17.3334 16.9243 16.7665 16.5904 16.7841 15.8858L16.8034 15.7681L17.2492 15.7678Z" fill="black"/>
<path d="M18.1378 15.7679C18.1349 15.9497 18.1804 16.1288 18.2694 16.2865C18.6572 16.9972 19.3555 17.6704 19.0931 18.5621C19.0208 18.8358 18.8069 19.0483 18.753 19.327C19.207 19.7095 19.6362 20.14 20.2385 20.1644C20.4531 20.0251 20.3338 19.406 20.7753 19.6911L21.4194 20.0193C21.3724 20.195 21.2286 20.3533 21.0977 20.4742C20.8532 20.353 20.6146 20.2072 20.3098 20.219C20.2199 20.3162 20.1422 20.4256 20.149 20.5649C20.3637 20.6008 20.56 20.692 20.7393 20.8196C20.656 21.002 20.4945 21.1169 20.3453 21.2567L19.8443 21.0743C19.761 21.1959 19.5873 21.3235 19.648 21.4569C19.761 21.506 19.8866 21.5723 19.9697 21.6575C19.749 21.9002 19.4689 22.0573 19.1999 22.2222C18.9679 21.4511 18.2035 20.9106 18.2691 20.0191L18.2338 19.9827C18.0545 20.1883 18.1148 20.5165 18.1265 20.7832C18.3414 21.3415 18.8544 21.7731 18.9321 22.3855C18.8424 22.543 18.6396 22.5734 18.4842 22.6402C18.5024 21.5359 16.8559 20.699 17.9119 19.582C18.264 19.0349 18.8544 18.5135 18.6452 17.7609C18.4306 17.0339 17.6704 16.5826 17.677 15.7677H18.1378" fill="black"/>
<path d="M22.9058 15.7679C22.9117 15.9731 22.9303 16.1495 22.8515 16.36C22.0341 16.5965 21.4973 15.7165 20.7042 15.8493L20.7934 16.3051C21.5272 16.3296 21.9866 17.0453 22.7444 17.0145C22.6368 17.2333 22.7922 17.8097 22.3151 17.5792C21.82 17.4581 21.4618 17.0145 20.9189 17.0145C20.8534 17.1366 20.8948 17.3068 20.8833 17.4516C21.4559 17.5428 21.8675 18.0348 22.4399 18.1257C22.386 18.3259 22.3323 18.5497 22.1713 18.6718C21.7056 18.5564 21.342 18.1312 20.8464 18.1434L20.7576 18.5619C21.2288 18.5741 21.5333 18.999 21.9567 19.1261C21.9682 19.3028 21.8136 19.4603 21.7242 19.6181C21.3486 19.5032 21.0619 19.1752 20.6324 19.1996C20.6263 19.0349 20.7219 18.8475 20.6856 18.6718C20.2032 18.8176 19.8803 18.3622 19.523 18.0886C19.5127 17.1938 18.5866 16.6061 18.5377 15.7677H22.9058" fill="black"/>
<path d="M7.18264 15.7678C7.17699 15.6869 7.17252 15.6309 7.17252 15.6309C7.91244 15.9227 8.56222 15.3824 9.19482 15.1035C9.35579 15.0544 9.60619 15.1397 9.67845 14.9577C9.67209 14.8182 9.92273 14.6542 9.71422 14.557C8.78909 14.4294 8.17484 15.5646 7.22642 15.0487L7.1544 14.9029C7.35162 12.1602 8.87287 9.50819 11.3962 8.20325C13.6515 6.8921 17.112 7.00174 19.2357 8.53098C20.3637 9.2348 21.4432 10.3942 22.0285 11.5718C22.5886 12.6033 22.8456 13.762 22.9226 14.9941C21.944 15.7465 21.2879 14.2846 20.2912 14.6118C20.3451 14.7698 20.375 14.9336 20.4889 15.0671C21.3721 15.0609 21.9802 16.0017 22.9049 15.6309L22.9056 15.7678H18.5374C18.5281 15.5843 18.559 15.4009 18.6278 15.2309C18.9321 14.5149 18.8363 13.5858 18.5024 12.9181C18.4009 12.7424 18.2221 12.6031 18.0547 12.4996C18.2997 13.028 18.5977 13.6528 18.4487 14.302C18.4315 14.8033 18.1413 15.2845 18.1381 15.7678H17.6773L17.6791 15.7042C17.8519 14.8543 18.3776 13.9499 17.9479 13.0457C17.8283 12.6818 17.5605 12.2691 17.1964 12.1173C17.7391 12.7488 17.9538 13.7802 17.6434 14.6302C17.4869 14.9683 17.2711 15.3702 17.2496 15.7676H16.8034C16.9882 14.7681 17.7359 13.8225 17.2136 12.7544C17.0764 12.4388 16.8022 12.1173 16.498 11.9349L16.4796 11.9536C17.0884 12.5545 17.2732 13.5439 16.9451 14.3384C16.7917 14.8045 16.4554 15.268 16.3871 15.7676H13.7186C13.7086 15.6964 13.6923 15.6263 13.6698 15.5581C13.3656 14.6841 12.7447 13.8106 13.1147 12.7905C13.2163 12.4992 13.4194 12.2502 13.5978 11.9897C13.0071 12.3112 12.7089 12.9911 12.7209 13.683C12.6953 14.4349 13.242 15.0793 13.3197 15.7676H12.8709C12.8351 15.0561 12.2051 14.501 12.3096 13.7012C12.3449 13.1125 12.5416 12.5964 12.9175 12.1537C12.3988 12.3658 12.1841 12.9729 12.0408 13.4826C11.7921 14.3001 12.3858 15.0351 12.4454 15.7676H11.9627C11.9685 15.6026 11.9403 15.4381 11.8801 15.2847C11.5581 14.4414 11.4445 13.3009 12.0589 12.5542C11.7247 12.6454 11.528 13.0696 11.4146 13.3914C11.0451 14.2149 11.5125 14.9781 11.5285 15.7676H7.18264" fill="black"/>
<path d="M15.4592 8.73086L16.4259 8.78568L16.4081 8.87689L15.6921 9.56874C15.8171 9.87851 15.9425 10.188 16.068 10.4969C16.6109 10.1758 17.1303 9.77509 17.7865 9.73224C17.7267 10.0846 17.4643 10.455 17.4996 10.8064C17.9055 10.6913 18.276 10.4365 18.7175 10.4605C18.4426 10.9766 18.0427 11.4927 18.0187 12.1357C17.4163 11.9057 16.7957 11.6258 16.1219 11.5169C14.6839 11.2677 13.2994 11.5895 12.1119 12.1724C12.0107 11.5595 11.7186 11.0252 11.3604 10.5155C11.5751 10.4428 11.8375 10.5637 12.0587 10.6252C12.2437 10.6793 12.3988 10.8066 12.5957 10.8435C12.631 10.4794 12.4228 10.1213 12.2738 9.7873C12.3752 9.7083 12.5362 9.76863 12.6496 9.80574C13.1206 9.98744 13.5444 10.2726 13.9741 10.534C14.1947 10.2726 14.2777 9.89623 14.3674 9.5503L13.6341 8.87689V8.80435L14.6004 8.74929C14.7611 8.44 14.8687 8.11227 15.0299 7.80273C15.2269 8.07588 15.2925 8.43401 15.4592 8.73086Z" fill="white"/>
<path d="M15.7992 10.7155L15.7103 10.8065C15.2626 10.7581 14.7915 10.8184 14.3674 10.8251C14.3199 10.7765 14.2248 10.7035 14.3135 10.6427L14.9939 10.1144C15.2746 10.2791 15.5726 10.4912 15.7992 10.7155Z" fill="black"/>
<path d="M3.86126 10.9702C3.49107 11.262 3.22866 11.687 3.30656 12.1722C3.34845 12.245 3.38987 12.3539 3.48542 12.3721C3.7836 12.3721 3.88503 12.0448 4.022 11.8442C4.18321 11.4801 4.49386 11.0854 4.91724 11.0432C5.28108 11.0193 5.59196 11.116 5.83037 11.4073C6.1942 11.8507 6.12854 12.5667 5.9558 13.0829C5.79412 13.4652 5.54372 13.853 5.186 14.1022L4.5414 13.7014C4.89347 13.4532 5.26366 13.046 5.3112 12.5909C5.3112 12.4272 5.2759 12.2086 5.07821 12.1902C4.66683 12.3118 4.62518 12.8152 4.34489 13.1006C4.13025 13.3254 3.86149 13.4948 3.52119 13.4463C3.20489 13.4278 2.93613 13.2279 2.75139 12.973C2.39931 12.4272 2.57229 11.6254 2.78716 11.2072C2.91871 10.9702 3.07404 10.7337 3.28867 10.5513C3.4673 10.6549 3.67652 10.8129 3.86126 10.9702ZM27.2366 11.4444C27.5466 11.9539 27.6666 12.6273 27.5051 13.2466L26.8429 13.2102C26.9328 12.8035 26.9982 12.2938 26.7177 11.9539C26.6344 11.8507 26.4852 11.7897 26.3776 11.8445C26.0138 12.2572 26.4082 12.8523 26.1813 13.3194C26.0736 13.5322 25.9126 13.7869 25.6798 13.8834C25.3035 14.0292 24.8382 13.9564 24.5518 13.6651C23.9915 13.0702 23.7286 12.1475 24.087 11.371H24.7848C24.6655 11.675 24.5827 12.1054 24.6956 12.4635C24.7549 12.6153 24.8267 12.8095 25.0002 12.864C25.5727 12.8851 25.1847 12.0508 25.3219 11.6621C25.3758 11.371 25.5306 11.0676 25.8227 10.9338C26.3595 10.6669 26.9864 10.9702 27.2366 11.4444ZM9.67844 12.5909C10.2569 12.3661 11.0444 11.9781 11.665 12.3908C11.5334 12.5787 11.2776 12.6821 11.0919 12.8456C10.7881 13.1489 10.4181 13.5188 10.1976 13.9013C9.45181 13.7493 8.85475 14.1932 8.2285 14.4479C7.98987 14.496 7.67357 14.5204 7.47682 14.3567C8.06753 13.367 8.90229 12.4568 8.69377 11.1521C8.75943 11.0368 8.87263 11.1342 8.94418 11.1706C9.40404 11.5347 9.62455 12.0386 9.67844 12.5909ZM21.4554 11.2982C21.2232 12.5361 22.0579 13.4103 22.6187 14.3569C21.9748 14.794 21.3655 14.1199 20.7574 13.9562C20.4889 13.914 20.1731 13.8772 19.9158 13.9198C19.5466 13.3376 19.0512 12.791 18.4485 12.4635C18.484 12.2636 18.7584 12.2507 18.9497 12.2265C19.4807 12.1724 19.946 12.3968 20.3816 12.6275C20.4651 12.4276 20.5009 12.2026 20.5602 11.9905C20.704 11.6324 20.9847 11.2678 21.3486 11.1165C21.4258 11.1284 21.4794 11.2137 21.4554 11.2982ZM16.4794 12.4274C16.4977 12.5303 16.5989 12.6215 16.5333 12.7369C16.1812 12.6273 15.7818 12.6879 15.4415 12.8274C15.137 13.058 15.1847 13.532 15.2624 13.8652L15.3521 13.9384C15.501 13.9018 15.5074 13.7079 15.6382 13.6651C15.8592 13.7199 16.1633 13.7991 16.372 13.6651C16.5568 13.6713 16.5514 13.932 16.5688 14.0658C16.4377 14.7699 16.1454 15.5345 15.4415 15.8682C15.149 16.014 14.7729 15.9163 14.4926 15.8134C13.8007 15.3947 13.4129 14.5633 13.4905 13.8111C13.5444 13.6957 13.628 13.6045 13.7595 13.6835C14.0391 13.8774 14.3434 13.532 14.6004 13.774C14.9103 13.6344 14.7256 13.2466 14.7256 12.9553C14.4752 12.6273 14.0455 12.6756 13.6698 12.7001C13.5025 12.5966 13.6818 12.4331 13.723 12.3178C14.129 11.7353 14.9049 11.7233 15.5844 11.8081C15.9308 11.8991 16.3127 12.0508 16.4794 12.4274Z" fill="white"/>
<path d="M14.4032 13.2645V13.3378C14.2005 13.3194 13.8727 13.113 13.6875 13.3739C13.5684 13.428 13.5505 13.2885 13.5625 13.2099C13.5567 13.1908 13.5549 13.1706 13.5573 13.1507C13.5597 13.1308 13.5662 13.1117 13.5763 13.0945C13.5865 13.0774 13.6001 13.0626 13.6162 13.0511C13.6324 13.0396 13.6507 13.0318 13.6701 13.028C13.9499 12.9612 14.2662 13.046 14.4032 13.2645ZM16.5333 13.1733C16.5276 13.2466 16.5453 13.3313 16.4617 13.3739C16.2348 13.283 15.9185 13.1554 15.6919 13.3378C15.5603 13.0524 15.9249 13.113 16.0499 13.0282C16.2351 13.0215 16.4499 13.016 16.5333 13.1733Z" fill="white"/>
<path d="M15.3876 14.3387C15.2805 14.5693 14.9343 14.4237 14.7432 14.4659C14.6783 14.4414 14.7192 14.3692 14.7075 14.3206C14.8986 14.1867 15.2386 14.169 15.3876 14.3387ZM15.6738 14.8489C15.5314 15.0672 15.3163 15.3399 15.0301 15.3224C14.7075 15.3466 14.6362 15.0794 14.4032 14.9217L14.3858 14.8118C14.8155 14.8788 15.2866 14.7943 15.6738 14.8489Z" fill="black"/>
<path d="M4.52328 17.6887C4.88476 17.6868 5.23166 17.7009 5.60491 17.6921L4.77439 18.3985C4.8544 18.6959 4.92359 19.0377 5.02479 19.4365L4.20133 18.8539C3.85514 19.0147 3.64663 19.212 3.28891 19.3999L3.57508 18.3983C3.30326 18.1721 2.99944 17.9573 2.74244 17.7268C3.11711 17.717 3.44517 17.7323 3.80736 17.7249C3.97469 17.4065 4.0493 17.0417 4.20133 16.7233L4.52328 17.6887ZM8.76532 22.4771C8.83733 22.6528 8.94112 22.7921 8.98536 23.0559C8.79473 23.178 8.55374 23.2781 8.33582 23.3875C8.28263 22.9867 7.93621 22.5982 7.5486 22.4948C7.22665 22.4134 6.87458 22.5683 6.63618 22.8594C6.43896 23.0954 6.37918 23.4358 6.43896 23.7332C6.59429 24.1452 7.02379 24.4564 7.45917 24.4564L7.58437 24.4602C7.49424 24.6874 7.38667 24.9071 7.26266 25.1171C6.54039 25.0922 5.81271 24.6613 5.54395 23.951C5.31144 23.375 5.4131 22.6284 5.77694 22.1486C6.21845 21.5786 6.92259 21.4206 7.60273 21.5664C8.06117 21.6943 8.49091 22.0459 8.76532 22.4771ZM22.6719 22.095L22.7171 22.14L21.6432 23.157L22.0012 23.5965C22.3053 23.3537 22.6338 23.0957 22.9588 22.7866C23.1259 22.9293 23.2605 23.0957 23.4182 23.2846C23.0965 23.5965 22.7618 23.8091 22.4818 24.1066C22.6011 24.2586 22.6931 24.431 22.875 24.6134L24.0329 23.6422L24.5276 24.1612C23.8715 24.7951 23.1558 25.4479 22.4756 25.9543L20.4529 23.296C21.0975 22.7495 21.6402 22.252 22.2071 21.6754C22.3803 21.7912 22.5058 21.9425 22.6719 22.095ZM11.2891 24.3343C11.653 24.8076 11.6588 25.5416 11.432 26.0816C11.179 26.631 10.6925 26.9803 10.1614 27.1014C9.5177 27.2044 8.90888 26.9925 8.44337 26.5377C8.03199 26.0761 7.80512 25.4147 8.01363 24.7717C8.19861 24.0736 8.86675 23.5639 9.55324 23.4789C10.2628 23.4361 10.9192 23.7698 11.2891 24.3343Z" fill="white"/>
<path d="M10.5377 24.7714C10.7398 25.2507 10.5073 25.724 10.1793 26.0637C9.97074 26.2334 9.69751 26.3404 9.42333 26.2372C9.25059 26.1522 9.03714 25.9969 8.98936 25.8085C8.85781 25.3232 9.07597 24.8681 9.40968 24.5344C9.61255 24.3642 9.90508 24.2675 10.1611 24.3886C10.3165 24.437 10.4894 24.6134 10.5377 24.7714Z" fill="#397657"/>
<path d="M17.6612 25.5415C17.1593 25.615 16.6799 25.6758 16.2019 25.7548C16.2501 25.9942 16.2287 26.1546 16.2647 26.337C16.7123 26.3282 17.1033 26.2473 17.521 26.1924L17.6431 26.9709C17.2181 27.0514 16.7901 27.1142 16.36 27.1593C16.372 27.511 16.4179 27.9417 16.4125 28.3302C16.0607 28.385 15.6808 28.4243 15.3168 28.3999L15.1021 25.0807L15.0993 25.011C15.9026 24.9331 16.7032 24.8287 17.4998 24.6981C17.533 24.9471 17.6076 25.2346 17.6612 25.5415ZM20.3985 24.0494L20.4286 24.1064L19.118 24.775L19.3399 25.299C19.7398 25.1439 20.085 24.9993 20.4823 24.7951C20.6035 24.9802 20.6866 25.1781 20.7864 25.4039C20.426 25.5992 20.053 25.7508 19.6602 25.9262C19.7332 26.1058 19.7699 26.2367 19.8982 26.5247L21.2775 25.9229L21.6096 26.563C20.8047 26.9839 19.9377 27.4057 19.1446 27.6977L17.9366 24.5694C18.7059 24.2289 19.3647 23.906 20.0674 23.5151C20.2022 23.675 20.2806 23.8564 20.3985 24.0494ZM14.61 25.9188C14.1109 25.8338 13.6345 25.7431 13.1566 25.6701C13.13 25.9133 13.0624 26.0601 13.0424 26.2441C13.4715 26.3741 13.8678 26.4182 14.282 26.4953L14.1655 27.2757C13.7364 27.2205 13.3097 27.1477 12.8864 27.0574C12.7927 27.3959 12.7085 27.8208 12.5873 28.1895C12.2352 28.1325 11.8612 28.052 11.5219 27.9158L12.3093 24.6879L12.3279 24.6211C13.1215 24.7956 13.9344 24.9478 14.7084 25.0656C14.6651 25.3129 14.65 25.6107 14.61 25.9188ZM26.2091 17.6937C26.5699 17.6923 26.8923 17.7021 27.29 17.6976L26.4602 18.404C26.5409 18.7009 26.6094 19.0427 26.7102 19.442L25.8874 18.8589C25.5405 19.0193 25.3322 19.217 24.9743 19.4049L25.2607 18.4038C24.9891 18.178 24.6846 17.9623 24.429 17.7318C24.8027 17.722 25.131 17.7373 25.493 17.7299C25.6391 17.3983 25.7436 17.0799 25.8874 16.7283L26.2091 17.6937Z" fill="white"/>
<path d="M24.7469 27.9309C25.2134 27.9309 25.6132 28.2998 25.6132 28.8004C25.6132 29.3055 25.2136 29.6742 24.7469 29.6742C24.2758 29.6742 23.8762 29.3055 23.8762 28.8004C23.8762 28.2998 24.2758 27.9309 24.7469 27.9309ZM24.7469 28.0719C24.3497 28.0719 24.0426 28.3846 24.0426 28.8004C24.0426 29.2255 24.3499 29.5334 24.7469 29.5334C25.1397 29.5334 25.4468 29.2258 25.4468 28.8004C25.4466 28.3846 25.1397 28.0719 24.7469 28.0719ZM24.5643 29.3055H24.412V28.2998H24.7907C25.0263 28.2998 25.1418 28.3891 25.1418 28.5864C25.1418 28.7673 25.0308 28.8449 24.883 28.8636L25.1647 29.3055H24.9985L24.7352 28.8684H24.5641L24.5643 29.3055ZM24.5643 28.7417H24.7446C24.9293 28.7417 24.9893 28.6874 24.9893 28.577C24.9893 28.4808 24.9432 28.4267 24.77 28.4267H24.5643V28.7417Z" fill="black"/>
</g>
<defs>
<clipPath id="clip0_14_267">
<rect width="30" height="31" fill="white"/>
</clipPath>
</defs>
</svg>
