<svg width="23" height="27" viewBox="0 0 23 27" fill="none" xmlns="http://www.w3.org/2000/svg">
<path d="M15.9842 17.981V8.49618C17.8821 9.851 20.1604 10.5772 22.4962 10.5718V6.96206C21.1162 6.67208 19.8685 5.94359 18.9409 4.88641C18.2001 4.40959 17.5647 3.78757 17.0735 3.0583C16.5822 2.32904 16.2455 1.50782 16.0839 0.644775H12.6557V19.326C12.6223 20.1391 12.3352 20.9218 11.8342 21.5651C11.3332 22.2084 10.6433 22.6804 9.8603 22.9156C9.07729 23.1509 8.24009 23.1375 7.46505 22.8775C6.69001 22.6175 6.01562 22.1237 5.53561 21.4647C4.75869 21.0578 4.14082 20.4041 3.78023 19.6075C3.41965 18.811 3.33705 17.9174 3.54558 17.0687C3.75411 16.2201 4.24179 15.4652 4.93107 14.9241C5.62036 14.383 6.47168 14.0867 7.34965 14.0824C7.74341 14.0859 8.13454 14.1467 8.51059 14.2629V10.653C6.8423 10.6812 5.21829 11.1917 3.83656 12.1224C2.45483 13.053 1.37509 14.3636 0.728984 15.8943C0.0828767 17.4249 -0.101677 19.1096 0.197823 20.7429C0.497324 22.3761 1.26794 23.8874 2.41571 25.0924C3.87354 26.072 5.6 26.5795 7.35882 26.5454C12.1153 26.5454 15.9741 22.7138 15.9842 17.981Z" fill="#534F4F"/>
</svg>
