<svg width="28" height="28" viewBox="0 0 28 28" fill="none" xmlns="http://www.w3.org/2000/svg">
<path d="M1.16667 14.5834V20.4167C1.16667 20.7261 1.28959 21.0229 1.50838 21.2416C1.72717 21.4604 2.02392 21.5834 2.33334 21.5834H3.50001C3.50001 22.5116 3.86875 23.4019 4.52513 24.0582C5.18151 24.7146 6.07175 25.0834 7.00001 25.0834C7.92826 25.0834 8.8185 24.7146 9.47488 24.0582C10.1313 23.4019 10.5 22.5116 10.5 21.5834H17.5C17.5 22.5116 17.8688 23.4019 18.5251 24.0582C19.1815 24.7146 20.0717 25.0834 21 25.0834C21.9283 25.0834 22.8185 24.7146 23.4749 24.0582C24.1313 23.4019 24.5 22.5116 24.5 21.5834H25.6667C25.9761 21.5834 26.2728 21.4604 26.4916 21.2416C26.7104 21.0229 26.8333 20.7261 26.8333 20.4167V6.41669C26.8333 5.48843 26.4646 4.59819 25.8082 3.94181C25.1518 3.28544 24.2616 2.91669 23.3333 2.91669H12.8333C11.9051 2.91669 11.0148 3.28544 10.3585 3.94181C9.70209 4.59819 9.33334 5.48843 9.33334 6.41669V8.75002H7.00001C6.45665 8.75002 5.92075 8.87653 5.43476 9.11953C4.94876 9.36252 4.52602 9.71533 4.20001 10.15L1.40001 13.8834C1.36588 13.9341 1.33843 13.989 1.31834 14.0467L1.24834 14.175C1.19685 14.3051 1.16919 14.4434 1.16667 14.5834ZM19.8333 21.5834C19.8333 21.3526 19.9018 21.127 20.03 20.9352C20.1582 20.7433 20.3404 20.5938 20.5535 20.5055C20.7667 20.4172 21.0013 20.3941 21.2276 20.4391C21.4539 20.4841 21.6618 20.5952 21.825 20.7584C21.9881 20.9216 22.0992 21.1294 22.1443 21.3557C22.1893 21.5821 22.1662 21.8166 22.0779 22.0298C21.9896 22.243 21.84 22.4252 21.6482 22.5534C21.4563 22.6816 21.2308 22.75 21 22.75C20.6906 22.75 20.3938 22.6271 20.175 22.4083C19.9563 22.1895 19.8333 21.8928 19.8333 21.5834ZM11.6667 6.41669C11.6667 6.10727 11.7896 5.81052 12.0084 5.59173C12.2272 5.37294 12.5239 5.25002 12.8333 5.25002H23.3333C23.6428 5.25002 23.9395 5.37294 24.1583 5.59173C24.3771 5.81052 24.5 6.10727 24.5 6.41669V19.25H23.59C23.262 18.8891 22.8621 18.6007 22.4161 18.4034C21.9701 18.2061 21.4877 18.1041 21 18.1041C20.5123 18.1041 20.0299 18.2061 19.5839 18.4034C19.1379 18.6007 18.7381 18.8891 18.41 19.25H11.6667V6.41669ZM9.33334 13.4167H4.66667L6.06667 11.55C6.17534 11.4051 6.31626 11.2875 6.47826 11.2065C6.64025 11.1255 6.81889 11.0834 7.00001 11.0834H9.33334V13.4167ZM5.83334 21.5834C5.83334 21.3526 5.90176 21.127 6.02996 20.9352C6.15815 20.7433 6.34036 20.5938 6.55354 20.5055C6.76672 20.4172 7.0013 20.3941 7.22761 20.4391C7.45392 20.4841 7.6618 20.5952 7.82496 20.7584C7.98812 20.9216 8.09924 21.1294 8.14426 21.3557C8.18927 21.5821 8.16617 21.8166 8.07787 22.0298C7.98956 22.243 7.84003 22.4252 7.64817 22.5534C7.45631 22.6816 7.23075 22.75 7.00001 22.75C6.69059 22.75 6.39384 22.6271 6.17505 22.4083C5.95626 22.1895 5.83334 21.8928 5.83334 21.5834ZM3.50001 15.75H9.33334V18.9934C8.64481 18.378 7.741 18.0597 6.81881 18.1078C5.89663 18.1558 5.03082 18.5664 4.41001 19.25H3.50001V15.75Z" fill="#6563FF"/>
</svg>
