<svg width="33" height="26" viewBox="0 0 33 26" fill="none" xmlns="http://www.w3.org/2000/svg">
<path d="M10.4295 26C22.4637 26 29.0447 16.0144 29.0447 7.35523C29.0447 7.07164 29.0389 6.78936 29.0262 6.50824C30.3067 5.5802 31.4118 4.43115 32.2897 3.11494C31.1174 3.63695 29.8559 3.98828 28.5325 4.14669C29.8834 3.33545 30.9203 2.05205 31.4096 0.52224C30.1253 1.28532 28.7203 1.82325 27.2551 2.11285C26.0612 0.839116 24.3615 0.0424805 22.4794 0.0424805C18.8664 0.0424805 15.9365 2.97711 15.9365 6.59448C15.9365 7.10876 15.994 7.60883 16.1062 8.08866C10.6686 7.81461 5.84684 5.20705 2.61989 1.24211C2.03869 2.24214 1.73299 3.37871 1.734 4.53573C1.734 6.80921 2.88901 8.81618 4.64549 9.99037C3.60651 9.95859 2.59033 9.67751 1.68241 9.17076C1.68144 9.19828 1.68144 9.22508 1.68144 9.25448C1.68144 12.428 3.93661 15.0777 6.93029 15.6781C6.36803 15.8314 5.78785 15.909 5.2051 15.9086C4.78426 15.9086 4.37411 15.8672 3.9755 15.7905C4.80844 18.3942 7.2237 20.2889 10.0873 20.3418C7.848 22.0997 5.02719 23.1468 1.96137 23.1468C1.43984 23.1472 0.91873 23.1169 0.400757 23.056C3.2963 24.9149 6.73448 25.9995 10.4298 25.9995" fill="#534F4F"/>
</svg>
